<svg id="Layer_1" data-name="Layer 1" xmlns="http://www.w3.org/2000/svg" viewBox="0 0 275 50"><defs><style>.cls-1{fill:#0d244d;}.cls-2{fill:#ee6725;}</style></defs><title>Technithunder logo</title><polygon class="cls-1" points="28.12 14.63 25.22 16.34 25.21 16.33 25.17 16.31 22.33 14.62 22.29 14.59 19.46 12.89 19.4 12.86 19.4 19.81 16.57 21.5 16.52 21.47 16.52 18.09 16.57 18.06 16.52 18.02 16.52 14.65 16.58 14.62 16.52 14.58 16.52 11.21 16.58 11.17 16.52 11.14 16.52 7.77 16.58 7.73 19.4 9.42 19.4 9.49 19.46 9.45 22.29 11.14 22.29 11.2 22.34 11.17 25.17 12.87 25.17 12.92 25.21 12.89 28.05 14.59 28.05 14.63 28.09 14.61 28.12 14.63"/><path class="cls-1" d="M16.35,21.82V7.68l.23-.14,11.86,7.09-3.22,1.9-.14-.08-5.51-3.3V19.9Zm.33-3.63v3l2.56-1.53V12.58l.3.17,5.68,3.4,2.58-1.52-2.58-1.55-.21.13V13l-2.67-1.6-.22.13v-.26L19.46,9.64l-.22.14V9.51L16.68,8V11l.22.13-.22.13v3.19l.21.13-.21.12v3.19l.22.14Z"/><polygon class="cls-2" points="36.72 26.66 39.59 28.37 39.59 28.38 36.71 30.1 36.7 30.09 36.7 30.1 33.83 31.82 33.82 31.81 33.82 31.83 30.95 33.54 30.94 33.53 30.94 33.55 28.07 35.26 28.05 35.25 28.05 31.83 28.07 31.82 30.94 30.11 30.95 30.1 30.94 30.09 30.94 26.67 30.96 26.66 30.94 26.64 30.94 23.23 30.96 23.22 30.94 23.2 30.94 19.79 30.97 19.77 30.94 19.76 30.94 16.31 30.97 16.33 33.82 18.04 33.85 18.05 33.85 18.08 33.85 18.08 33.82 28.39 33.84 28.38 36.7 26.66 36.72 26.66"/><path class="cls-2" d="M27.89,35.56V31.74l.1-.06L30.77,30V16l.29.18L34,18v.12l0,10,2.66-1.59.08,0,3.18,1.89-.23.16-3,1.77h0Zm.33-3.63v3l2.55-1.52v-.2l.18.09,2.7-1.62v-.2l.18.1L36.54,30v-.19l.17.09,2.56-1.54-2.55-1.52L33.9,28.53l-.25.14,0-10.53L31.1,16.6v3.06l.19.11-.19.11v3.23l.17.11-.17.1v3.23l.18.11-.18.1V30l.17.11-.25.15Z"/><polygon class="cls-1" points="45.35 24.93 42.47 26.65 42.47 26.65 39.6 24.93 39.59 24.93 36.72 23.21 36.7 23.2 36.63 23.16 36.63 19.72 36.7 19.76 36.7 19.79 36.72 19.77 39.59 21.48 39.59 21.5 39.6 21.49 42.47 23.21 42.47 23.21 42.48 23.21 45.35 24.93"/><path class="cls-1" d="M42.46,26.85l-.08-.06-5.91-3.54V19.43l.4.24,8.8,5.26Zm-5.67-3.78h0l5.67,3.39L45,24.93l-2.54-1.52-.18.16V23.3L39.6,21.68l-.18.12v-.22L36.79,20Z"/><polygon class="cls-1" points="19.4 30.19 19.4 40.45 16.55 42.15 16.52 42.13 16.52 38.73 16.55 38.71 16.52 38.69 16.52 35.29 16.55 35.27 16.52 35.24 16.52 31.85 16.56 31.82 19.4 30.19"/><path class="cls-1" d="M16.35,42.46V31.76l.12-.07,3.1-1.78V40.54Zm.33-3.64v3.06l2.56-1.53V30.47l-2.56,1.47v3.21l.19.12-.19.11v3.21l.2.12Z"/><polygon class="cls-2" points="28.05 18.07 28.05 21.52 25.2 23.22 25.17 23.2 25.17 37 22.31 38.71 22.31 38.71 22.29 38.69 22.29 35.28 22.31 35.27 22.29 35.25 22.29 31.84 22.32 31.82 22.29 31.8 22.29 28.4 22.32 28.38 22.29 28.36 22.29 24.96 22.32 24.94 22.29 24.92 22.29 24.96 16.52 28.41 16.52 24.97 16.57 24.94 19.4 23.25 19.45 23.22 22.29 21.52 22.33 21.5 25.17 19.8 25.21 19.78 28.05 18.07"/><path class="cls-2" d="M22.12,39V25.25L16.35,28.7V24.88l.13-.08,11.74-7v3.82l-2.89,1.72V37.09Zm.33-3.63v3L25,36.9v-14l.19.11,2.69-1.61V18.36l-11.21,6.7v3.06l5.44-3.25v-.24l.52.31-.19.11v3.22l.19.11-.19.12v3.22l.18.11-.18.11v3.22l.19.12Z"/><path class="cls-1" d="M57.58,18.88v2.5h4.63V33.46H65V21.38h4.62v-2.5Z"/><polygon class="cls-1" points="76.02 30.75 76.02 27.46 83.91 27.46 83.91 24.89 76.02 24.89 76.02 24.89 73.29 24.89 73.29 33.46 84.2 33.46 84.2 30.75 76.02 30.75"/><rect class="cls-2" x="73.29" y="18.88" width="10.91" height="2.66"/><path class="cls-1" d="M99.38,29.73a5.4,5.4,0,0,1-3.66,1.48,4.67,4.67,0,0,1-5-4.94,4.77,4.77,0,0,1,5-5.06,5,5,0,0,1,3.51,1.37l1.84-1.77a7.52,7.52,0,0,0-5.35-2.22A7.33,7.33,0,0,0,88,26.27c0,3.79,2.31,7.52,7.73,7.52a7.65,7.65,0,0,0,5.53-2.17Z"/><path class="cls-1" d="M114.81,18.9V25h-7.17V18.9H104.9V33.47h2.74V27.58h7.17v5.89h2.73V18.9Z"/><path class="cls-1" d="M131.78,18.86v9.05l-7.14-9h-2.23V33.46h2.75V23.63l7.66,9.84h1.71V18.86Z"/><path class="cls-1" d="M139.15,18.88V33.46h2.73V18.88Z"/><path class="cls-1" d="M146.36,18.88v2.5H151V33.46h2.75V21.38h4.62v-2.5Z"/><path class="cls-1" d="M172,18.9V25h-7.17V18.9h-2.75V33.47h2.75V27.58H172v5.89h2.73V18.9Z"/><path class="cls-1" d="M189.49,18.9v8.35c0,2.5-1.29,4-3.56,4s-3.77-1.4-3.77-4V18.9h-2.73v8.35c0,4.39,3,6.52,6.48,6.52,3.66,0,6.31-2.21,6.31-6.52V18.9Z"/><path class="cls-1" d="M206.56,18.86v9.05l-7.14-9h-2.23V33.46h2.75V23.63l7.67,9.84h1.7V18.86Z"/><path class="cls-1" d="M219.46,18.88h-5.73V33.46h5.73c5.1,0,7.34-3.73,7.28-7.42S224.45,18.88,219.46,18.88Zm0,11.93h-3V21.48h3A4.33,4.33,0,0,1,224,26C224.08,28.39,222.76,30.81,219.46,30.81Z"/><rect class="cls-2" x="230.6" y="18.88" width="10.91" height="2.66"/><polygon class="cls-1" points="233.32 30.75 233.32 27.46 241.22 27.46 241.22 24.89 233.32 24.89 233.32 24.89 230.6 24.89 230.6 33.46 241.51 33.46 241.51 30.75 233.32 30.75"/><path class="cls-1" d="M254.23,28.29a4.32,4.32,0,0,0,3.69-4.58c0-2.52-1.81-4.81-5.25-4.83l-6.94,0v14.6h2.75V28.58h2.65l4.25,4.88h3.27v-.19Zm-5.75-2.19V21.44h4.19a2.34,2.34,0,1,1,0,4.66Z"/></svg>