<svg xmlns="http://www.w3.org/2000/svg" width="112" height="28" viewBox="0 0 112 28">
  <g id="Layer_x0020_1" transform="translate(64 -6)">
    <g id="_1847343404064" transform="translate(-64 6)">
      <g id="Group_14903" data-name="Group 14903">
        <path id="Path_5089" data-name="Path 5089" d="M21.81,22.237H31.875l.588-2.7h-6.68L28.831,5.093H25.419Zm23.162,0h3.652l-1.973-2.9a9.721,9.721,0,0,0,1.443-1.905,11.141,11.141,0,0,0,.965-2.178,12.546,12.546,0,0,0,.518-2.328H46.6a6.279,6.279,0,0,1-.224,1.463,8.069,8.069,0,0,1-.522,1.384,10.133,10.133,0,0,1-.741,1.281l-2.463-3.562a13.712,13.712,0,0,0,1.651-.715,6.965,6.965,0,0,0,1.416-.968,4.272,4.272,0,0,0,1-1.324,4.121,4.121,0,0,0,.373-1.779,3.463,3.463,0,0,0-.3-1.447,3.543,3.543,0,0,0-.773-1.095,4.456,4.456,0,0,0-1.1-.767,5.482,5.482,0,0,0-1.263-.451A5.721,5.721,0,0,0,42.387,4.8a6.629,6.629,0,0,0-1.883.265,5.043,5.043,0,0,0-1.632.8,3.954,3.954,0,0,0-1.149,1.356,4.264,4.264,0,0,0-.431,1.921,4.688,4.688,0,0,0,.161,1.3,4.133,4.133,0,0,0,.42.988,10.007,10.007,0,0,0,.616.905,9.007,9.007,0,0,0-1.781.755,6.522,6.522,0,0,0-1.491,1.131,4.776,4.776,0,0,0-1.408,3.447,4.945,4.945,0,0,0,.329,1.834,4.133,4.133,0,0,0,.89,1.372,4.786,4.786,0,0,0,1.322.937,6.575,6.575,0,0,0,1.612.546,8.808,8.808,0,0,0,3,.083,10.506,10.506,0,0,0,1.263-.253,8.66,8.66,0,0,0,1.169-.4,5.377,5.377,0,0,0,.961-.53l.612.98Zm-2.048-3.119a3.9,3.9,0,0,1-.855.474,5.577,5.577,0,0,1-.988.289,5.766,5.766,0,0,1-1.032.1,4.618,4.618,0,0,1-1.145-.138,2.764,2.764,0,0,1-.945-.431,1.987,1.987,0,0,1-.643-.771,2.57,2.57,0,0,1,.643-3.091,4.48,4.48,0,0,1,.9-.6A9.717,9.717,0,0,1,39.9,14.5l3.024,4.617ZM44.262,8.706a2.1,2.1,0,0,1-.282,1.067,2.652,2.652,0,0,1-.726.771,4.766,4.766,0,0,1-.953.526,8.292,8.292,0,0,1-.985.336,6.313,6.313,0,0,1-.428-.672,3.9,3.9,0,0,1-.337-.739,2.218,2.218,0,0,1-.137-.747A2.111,2.111,0,0,1,40.7,8.136a1.828,1.828,0,0,1,.765-.692,2.49,2.49,0,0,1,1.094-.237,2.318,2.318,0,0,1,.812.13,1.328,1.328,0,0,1,.639.466A1.462,1.462,0,0,1,44.262,8.706ZM51.209,7.8h4.8l-3.095,14.44h3.558L59.568,7.8h4.8l.561-2.7H51.793l-.584,2.7Z" transform="translate(-21.182 -4.8)" fill="#006cb5"/>
        <path id="Path_5090" data-name="Path 5090" d="M124.149,30.2l-.679,2.609h5.719l.769-2.609Z" transform="translate(-83.147 -20.206)" fill="#006cb5"/>
        <path id="Path_5091" data-name="Path 5091" d="M216.08,10.929A5.133,5.133,0,0,1,219.536,9.2l11.2,0,.926-3.732h-11.9c-1.475,0-2.4.186-2.718,1.585-.333,1.482-.667,2.526-.965,3.874Z" transform="translate(-139.625 -5.205)" fill="#f7a707" fill-rule="evenodd"/>
        <path id="Path_5092" data-name="Path 5092" d="M225.806,21.381l-3.985-3.791-.49,1.9-5.4.016c-1.545,0-2.008.328-2.318,1.862l-.428,1.929h0c-.118.534-.235,1.048-.337,1.518a3.142,3.142,0,0,1,2.393-1.51l5.429.024-.377,1.846Z" transform="translate(-137.647 -12.563)" fill="#006cb5" fill-rule="evenodd"/>
        <path id="Path_5093" data-name="Path 5093" d="M155.779,5.47l-.757,3.724h-6.562c-.867,0-.777.625-.271,1.1.259.241,3.5,3.526,4.664,4.688,2.64,2.629.318,6.8-2.577,7.657H141.45l1.467-3.467h5.158c2.208,0,2.75-.834,1.247-2.435-.228-.241-4.472-4.471-4.472-4.471-2.048-2.135-1.753-6.424,2.044-6.8Z" transform="translate(-94.123 -5.205)" fill="#006cb5" fill-rule="evenodd"/>
        <path id="Path_5094" data-name="Path 5094" d="M248.7,29.828l2.879-12.468h3.55l-2.875,12.468Z" transform="translate(-159.548 -12.432)" fill="#f7a707" fill-rule="evenodd"/>
        <path id="Path_5095" data-name="Path 5095" d="M256.64,9.166l.847-3.676h3.55l-.847,3.676Z" transform="translate(-164.374 -5.217)" fill="#006cb5" fill-rule="evenodd"/>
        <path id="Path_5096" data-name="Path 5096" d="M272.128,22.65l-4.558-11.5-2.655,11.5H261.62l3.962-17.16h3.754l4.189,11.076L276.078,5.49H279.4l-3.962,17.16Z" transform="translate(-167.4 -5.217)" fill="#f7a707" fill-rule="evenodd"/>
        <path id="Path_5100" data-name="Path 5100" d="M215.082,39.45h-2c-1.491,0-1.836.15-2.087,1.546l-.455,2.19h3.868Z" transform="translate(-136.211 -25.819)" fill="#f7a707" fill-rule="evenodd"/>
        <path id="Path_5103" data-name="Path 5103" d="M191.634,5.47,189.41,16.641a7,7,0,0,1-2.593,4.542c-2.31,1.716-7.731,2.21-9.865.091-.981-.976-1.373-2.415-.973-4.431L178.243,5.47h3.53l-2.2,11.045c-.357,1.905.027,2.909,1.251,2.909a17.291,17.291,0,0,0,2.895-.075,3.025,3.025,0,0,0,2.138-2.708L188.081,5.47h3.554Z" transform="translate(-115.084 -5.205)" fill="#006cb5" fill-rule="evenodd"/>
        <path id="Path_5106" data-name="Path 5106" d="M20.21,67.811h.7l.477-1.194h2.293l.473,1.194h.73l-1.976-4.736h-.7l-2,4.736Zm3.258-1.751H21.6l.93-2.344Zm8,1.751h.629V66.237c0-.87.371-1.411.934-1.411a.92.92,0,0,1,.348.059v-.569a1.709,1.709,0,0,0-.414-.047,1.049,1.049,0,0,0-.894.617h-.012v-.534h-.59Zm2.8-2.672a1.591,1.591,0,0,1,.992-.352c.633,0,.848.3.848.9-.25-.012-.422-.012-.672-.012-.652,0-1.59.269-1.59,1.138,0,.751.516,1.079,1.254,1.079a1.258,1.258,0,0,0,1.058-.53h.016v.447h.59a5.064,5.064,0,0,1-.027-.68V65.7c0-.941-.394-1.431-1.375-1.431a2.155,2.155,0,0,0-1.125.328Zm1.84,1.328a.869.869,0,0,1-.953.909.6.6,0,0,1-.637-.561c0-.613.844-.664,1.187-.664.133,0,.266.012.4.012Zm1.7,1.344h.629v-1.6c0-.842.32-1.423,1.039-1.423.551.032.723.427.723,1.233v1.791h.633V65.755c0-.929-.4-1.486-1.281-1.486a1.226,1.226,0,0,0-1.121.632h-.012v-.549H37.8v3.459Zm6.515,0h.6V62.723h-.629v2.1h-.012a1.22,1.22,0,0,0-1.137-.557c-.988,0-1.473.822-1.473,1.751,0,.945.434,1.874,1.469,1.874a1.366,1.366,0,0,0,1.164-.569h.016Zm-1.98-1.743c-.012-.632.258-1.281.941-1.281s1.012.656,1.012,1.3c0,.577-.3,1.289-1,1.289-.68,0-.961-.767-.949-1.308Zm5.292.012a1.74,1.74,0,1,0,3.476,0,1.74,1.74,0,1,0-3.476,0Zm.668,0a1.089,1.089,0,1,1,2.14,0,1.09,1.09,0,1,1-2.14,0Zm4.062,1.731h.629V64.866h.906v-.514h-.906V63.98c0-.47.07-.822.613-.822a.975.975,0,0,1,.3.04l.027-.514a2.619,2.619,0,0,0-.422-.043c-.934,0-1.148.549-1.148,1.391v.32h-.8v.514h.8v2.945Zm4.117,0H59.1v-.6H57.14V63.075h-.668Zm3.492-2.672a1.591,1.591,0,0,1,.992-.352c.629,0,.844.3.844.9-.246-.012-.422-.012-.668-.012-.652,0-1.59.269-1.59,1.138,0,.751.516,1.079,1.254,1.079a1.27,1.27,0,0,0,1.058-.53h.012v.447h.59a5.908,5.908,0,0,1-.027-.68V65.7c0-.941-.394-1.431-1.371-1.431a2.17,2.17,0,0,0-1.129.328l.035.542ZM61.8,66.467a.867.867,0,0,1-.953.909.6.6,0,0,1-.633-.561c0-.613.844-.664,1.183-.664.137,0,.27.012.4.012Zm1.7,1.344h.633V66.237c0-.87.367-1.411.93-1.411a.907.907,0,0,1,.348.059v-.569a1.709,1.709,0,0,0-.414-.047,1.044,1.044,0,0,0-.891.617h-.016v-.534H63.5v3.459Zm2.32-.107a1.968,1.968,0,0,0,.937.19,1.082,1.082,0,0,0,1.2-1.079c0-1.107-1.48-.9-1.48-1.609,0-.285.281-.419.6-.419a1.839,1.839,0,0,1,.664.174l.055-.553A2.615,2.615,0,0,0,67,64.269,1.062,1.062,0,0,0,65.8,65.336c0,.968,1.48.913,1.48,1.546,0,.372-.355.494-.641.494a1.623,1.623,0,0,1-.785-.245Zm5.515-.672a2.006,2.006,0,0,1-1.051.344,1.122,1.122,0,0,1-1.125-1.15h2.437c0-1.115-.367-1.957-1.508-1.957a1.6,1.6,0,0,0-1.6,1.751,1.649,1.649,0,0,0,1.769,1.874,2.589,2.589,0,0,0,1.078-.225v-.636Zm-2.176-1.285a.95.95,0,0,1,.918-.961.867.867,0,0,1,.851.961Zm3.285,2.063h.629v-1.6c0-.842.32-1.423,1.039-1.423.551.032.723.427.723,1.233v1.791h.633V65.755c0-.929-.4-1.486-1.281-1.486a1.226,1.226,0,0,0-1.121.632h-.012v-.549h-.609v3.459Zm9.136-2.558a2.317,2.317,0,0,1-.289,1.146l-.953-1.1a1.493,1.493,0,0,0,1.027-1.233A1.044,1.044,0,0,0,80.2,63a1.084,1.084,0,0,0-1.219,1.111,1.68,1.68,0,0,0,.48,1.079,1.428,1.428,0,0,0-1.043,1.384,1.335,1.335,0,0,0,1.508,1.324,1.607,1.607,0,0,0,1.34-.546l.383.463h.836l-.816-.937a3.13,3.13,0,0,0,.535-1.621h-.629Zm-2.449,1.269c0-.466.3-.692.66-.937l1.125,1.336a1.155,1.155,0,0,1-.863.455A.873.873,0,0,1,79.126,66.522Zm.484-2.4a.55.55,0,0,1,.562-.609.508.508,0,0,1,.559.585c0,.4-.422.692-.707.826A1.274,1.274,0,0,1,79.611,64.118Zm6.48,3.692h.672V63.672h1.453v-.6H84.638v.6h1.453ZM88.1,66.079a1.742,1.742,0,1,0,3.48,0,1.741,1.741,0,1,0-3.48,0Zm.672,0a1.088,1.088,0,1,1,2.137,0,1.088,1.088,0,1,1-2.137,0Zm6.675-1.727H94.82v1.6c0,.842-.32,1.423-1.039,1.423-.551-.032-.723-.427-.723-1.233V64.352h-.633v2.056c0,.929.394,1.486,1.281,1.486a1.226,1.226,0,0,0,1.121-.632h.012v.549h.609Zm1.074,3.459h.6v-.486h.016a1.366,1.366,0,0,0,1.164.569c1.035,0,1.469-.925,1.469-1.874,0-.929-.484-1.751-1.473-1.751a1.22,1.22,0,0,0-1.137.557h-.012v-2.1h-.629v5.088ZM99.1,66.067c.012.542-.27,1.308-.949,1.308-.707,0-1-.712-1-1.289,0-.644.328-1.3,1.012-1.3s.953.656.941,1.281Zm1.512,1.743h.633V66.237c0-.87.367-1.411.93-1.411a.907.907,0,0,1,.348.059v-.569a1.709,1.709,0,0,0-.414-.047,1.044,1.044,0,0,0-.891.617h-.016v-.534h-.59v3.459ZM103,66.079a1.74,1.74,0,1,0,3.476,0,1.74,1.74,0,1,0-3.476,0Zm.668,0a1.089,1.089,0,1,1,2.14,0,1.09,1.09,0,1,1-2.14,0Zm5.57,1.731h2.629v-.6h-1.957V63.075h-.672Zm3.379,0h.629V64.352h-.629Zm.672-4.953h-.711v.719h.711Zm1.105,4.953h.629V66.067c0-.644.258-1.281.9-1.281.512,0,.613.534.613.961v2.063h.629V66.067c0-.644.254-1.281.9-1.281.508,0,.609.534.609.961v2.063h.629V65.593c0-.755-.312-1.324-1.187-1.324a1.218,1.218,0,0,0-1.058.672,1.01,1.01,0,0,0-.973-.672,1.152,1.152,0,0,0-1.086.585h-.012v-.5h-.59v3.459Zm6.046,0h.629V64.352h-.629Zm.672-4.953H120.4v.719h.711Zm2.929,1.494h-.906v-1l-.629.2v.8h-.773v.514h.773V66.89a.919.919,0,0,0,1.051,1,1.974,1.974,0,0,0,.535-.095v-.546a.754.754,0,0,1-.43.123.546.546,0,0,1-.527-.617V64.866h.906v-.514Zm3.41,2.68a2.019,2.019,0,0,1-1.051.344,1.125,1.125,0,0,1-1.129-1.15h2.441c0-1.115-.367-1.957-1.508-1.957a1.6,1.6,0,0,0-1.6,1.751,1.647,1.647,0,0,0,1.769,1.874,2.605,2.605,0,0,0,1.078-.225Zm-2.179-1.285a.951.951,0,0,1,.922-.961.864.864,0,0,1,.848.961Zm5.707,2.063h.6V62.723h-.629v2.1h-.016a1.209,1.209,0,0,0-1.133-.557c-.992,0-1.473.822-1.473,1.751,0,.945.434,1.874,1.469,1.874a1.366,1.366,0,0,0,1.164-.569h.016v.486ZM129,66.067c-.012-.632.258-1.281.941-1.281s1.012.656,1.012,1.3c0,.577-.3,1.289-1,1.289-.68,0-.961-.767-.949-1.308ZM27.369,67.811h.6v-.486h.012a1.374,1.374,0,0,0,1.168.569c1.031,0,1.469-.925,1.469-1.874,0-.929-.484-1.751-1.476-1.751a1.213,1.213,0,0,0-1.133.557H28v-2.1h-.629v5.088Zm2.578-1.743c.012.542-.269,1.308-.945,1.308-.711,0-1-.712-1-1.289,0-.644.328-1.3,1.012-1.3s.949.656.937,1.281Z" transform="translate(-20.21 -39.894)" fill="#212121"/>
      </g>
    </g>
  </g>
</svg>
