<?xml version="1.0" encoding="UTF-8"?>
<!DOCTYPE svg PUBLIC "-//W3C//DTD SVG 1.1//EN" "http://www.w3.org/Graphics/SVG/1.1/DTD/svg11.dtd">
<svg xmlns="http://www.w3.org/2000/svg" version="1.1" width="4213px" height="2455px" style="shape-rendering:geometricPrecision; text-rendering:geometricPrecision; image-rendering:optimizeQuality; fill-rule:evenodd; clip-rule:evenodd" xmlns:xlink="http://www.w3.org/1999/xlink">
<g><path style="opacity:0.993" fill="#f09700" d="M 978.5,-0.5 C 983.167,-0.5 987.833,-0.5 992.5,-0.5C 1249.85,4.85054 1472.85,94.0172 1661.5,267C 1774.26,373.946 1857.92,500.446 1912.5,646.5C 2641.83,647.333 3371.17,647.833 4100.5,648C 4130.42,652.284 4153.42,667.118 4169.5,692.5C 4181.19,711.418 4187.36,732.084 4188,754.5C 4188.67,1120.83 4188.67,1487.17 4188,1853.5C 4186.85,1887.96 4173.68,1916.79 4148.5,1940C 4135.43,1950.37 4120.76,1957.2 4104.5,1960.5C 3208.51,1961.33 2312.51,1961.83 1416.5,1962C 1260.33,2126.34 1103.99,2290.51 947.5,2454.5C 947.167,2454.5 946.833,2454.5 946.5,2454.5C 709.584,2178.08 472.084,1902.08 234,1626.5C 89.4565,1453.13 11.2898,1253.13 -0.5,1026.5C -0.5,999.833 -0.5,973.167 -0.5,946.5C 12.1454,705.318 98.9787,495.651 260,317.5C 415.003,151.831 605.17,49.9975 830.5,12C 879.712,4.51031 929.045,0.343646 978.5,-0.5 Z"/></g>
<g><path style="opacity:1" fill="#f6ba00" d="M 950.5,61.5 C 1174.06,54.7527 1374.73,118.253 1552.5,252C 1744.52,403.8 1860.69,600.966 1901,843.5C 1934.09,1084.78 1882.42,1305.78 1746,1506.5C 1706.53,1562.33 1661.53,1613.66 1611,1660.5C 1393.02,1890.31 1174.52,2119.65 955.5,2348.5C 735.43,2092.69 515.597,1836.69 296,1580.5C 225.964,1500.51 171.631,1410.51 133,1310.5C 62.0467,1119.34 53.38,925.34 107,728.5C 173.174,507.565 302.341,333.732 494.5,207C 633.586,118.473 785.586,69.9731 950.5,61.5 Z"/></g>
<g><path style="opacity:1" fill="#f09701" d="M 949.5,181.5 C 1164.36,173.835 1353.36,239.002 1516.5,377C 1656.08,500.593 1743.58,654.427 1779,838.5C 1814.67,1056.76 1770.67,1257.09 1647,1439.5C 1532.58,1599.2 1380.08,1704.7 1189.5,1756C 1013.67,1798.92 842.337,1785.58 675.5,1716C 479.371,1628.2 338.537,1485.7 253,1288.5C 182.578,1113.85 172.911,935.849 224,754.5C 286.078,554.743 406.244,400.577 584.5,292C 697.269,225.799 818.936,188.966 949.5,181.5 Z"/></g>
<g><path style="opacity:1" fill="#f6f6f7" d="M 963.5,226.5 C 1196.53,222.979 1392.36,305.646 1551,474.5C 1690.41,632.694 1754.74,817.694 1744,1029.5C 1726.29,1248.11 1633.79,1427.28 1466.5,1567C 1298.81,1698.54 1108.47,1752.54 895.5,1729C 694.464,1700.1 529.964,1607.6 402,1451.5C 277.363,1291.05 223.697,1109.05 241,905.5C 264.386,702.191 353.22,534.358 507.5,402C 639.713,293.298 791.713,234.798 963.5,226.5 Z"/></g>
<g><path style="opacity:0.824" fill="#000000" d="M 4068.5,383.5 C 4115.55,380.61 4152.05,398.61 4178,437.5C 4199.22,475.811 4199.89,514.478 4180,553.5C 4149.21,600.776 4106.04,618.61 4050.5,607C 3997.69,589.425 3969.69,552.759 3966.5,497C 3971.68,433.079 4005.68,395.245 4068.5,383.5 Z M 4071.5,388.5 C 4128.16,388.058 4165.99,414.392 4185,467.5C 4196.59,521.132 4179.42,562.632 4133.5,592C 4081.79,616.257 4036.29,607.757 3997,566.5C 3971.31,533.044 3965.65,496.378 3980,456.5C 3998.16,417.162 4028.66,394.495 4071.5,388.5 Z"/></g>
<g><path style="opacity:0.958" fill="#000000" d="M 3991.5,453.5 C 4012.83,453.5 4034.17,453.5 4055.5,453.5C 4055.5,458.5 4055.5,463.5 4055.5,468.5C 4047.83,468.5 4040.17,468.5 4032.5,468.5C 4032.5,492.5 4032.5,516.5 4032.5,540.5C 4026.5,540.5 4020.5,540.5 4014.5,540.5C 4014.5,516.5 4014.5,492.5 4014.5,468.5C 4006.83,468.5 3999.17,468.5 3991.5,468.5C 3991.5,463.5 3991.5,458.5 3991.5,453.5 Z"/></g>
<g><path style="opacity:0.945" fill="#000000" d="M 4066.5,453.5 C 4073.75,453.187 4080.92,453.52 4088,454.5C 4096.36,475.074 4105.19,495.407 4114.5,515.5C 4123.43,495.218 4132.26,474.884 4141,454.5C 4147.74,453.521 4154.58,453.188 4161.5,453.5C 4161.5,482.5 4161.5,511.5 4161.5,540.5C 4155.5,540.5 4149.5,540.5 4143.5,540.5C 4143.67,523.163 4143.5,505.83 4143,488.5C 4136,505.5 4129,522.5 4122,539.5C 4117,540.833 4112,540.833 4107,539.5C 4100,522.833 4093,506.167 4086,489.5C 4085.5,506.497 4085.33,523.497 4085.5,540.5C 4079.17,540.5 4072.83,540.5 4066.5,540.5C 4066.5,511.5 4066.5,482.5 4066.5,453.5 Z"/></g>
<g><path style="opacity:1" fill="#1f140f" d="M 1245.5,1346.5 C 1101,1345.5 956.334,1345.17 811.5,1345.5C 811.5,1370.17 811.5,1394.83 811.5,1419.5C 808.748,1429.42 802.414,1435.92 792.5,1439C 789.576,1439.99 786.576,1440.65 783.5,1441C 741.5,1441.67 699.5,1441.67 657.5,1441C 645.644,1438.47 637.478,1431.64 633,1420.5C 632.5,1395.84 632.333,1371.17 632.5,1346.5C 614.497,1346.67 596.497,1346.5 578.5,1346C 556.912,1324.94 538.079,1301.78 522,1276.5C 517.772,1268.82 514.938,1260.65 513.5,1252C 515.781,1242.05 520.281,1233.21 527,1225.5C 527.923,1223.97 528.423,1222.3 528.5,1220.5C 512.817,1156.1 496.984,1091.77 481,1027.5C 479.431,1020.73 478.264,1013.89 477.5,1007C 477.636,1001.29 478.803,995.787 481,990.5C 490.698,969.756 503.364,951.09 519,934.5C 526.554,926.946 534.054,919.446 541.5,912C 501.231,903.402 474.397,879.569 461,840.5C 455.797,820.742 463.297,809.242 483.5,806C 512.192,803.949 540.859,804.282 569.5,807C 580.678,808.948 591.512,812.115 602,816.5C 630.704,768.11 659.037,719.444 687,670.5C 702.636,652.426 722.136,640.593 745.5,635C 800.503,634.833 855.503,634.333 910.5,633.5C 909.253,628.379 909.753,623.379 912,618.5C 916.985,607.358 923.818,597.525 932.5,589C 938.545,586.323 944.878,584.656 951.5,584C 980.414,580.704 1009.41,579.704 1038.5,581C 1045.44,581.055 1052.11,582.388 1058.5,585C 1067.96,594.803 1075.46,605.97 1081,618.5C 1082.34,623.736 1082.84,629.07 1082.5,634.5C 1131.83,634.333 1181.17,634.5 1230.5,635C 1256.25,640.47 1277.75,652.97 1295,672.5C 1326.62,718.914 1358.12,765.414 1389.5,812C 1399.97,809.389 1410.63,807.389 1421.5,806C 1443.82,804.66 1466.15,804.326 1488.5,805C 1521.62,805.779 1531.45,821.279 1518,851.5C 1505.88,877.454 1486.71,896.121 1460.5,907.5C 1473.26,919.752 1485.09,932.752 1496,946.5C 1505.3,958.759 1511.63,972.426 1515,987.5C 1515.67,992.833 1515.67,998.167 1515,1003.5C 1506.09,1075.14 1497.75,1146.81 1490,1218.5C 1504.1,1226.7 1509.44,1238.7 1506,1254.5C 1493.64,1286.55 1478.14,1316.89 1459.5,1345.5C 1447.85,1346.5 1436.19,1346.83 1424.5,1346.5C 1424.67,1371.17 1424.5,1395.84 1424,1420.5C 1419.34,1432.48 1410.5,1439.31 1397.5,1441C 1355.83,1441.67 1314.17,1441.67 1272.5,1441C 1263.56,1439.95 1256.06,1436.11 1250,1429.5C 1247.85,1426.87 1246.52,1423.87 1246,1420.5C 1245.5,1395.84 1245.33,1371.17 1245.5,1346.5 Z"/></g>
<g><path style="opacity:1" fill="#efeeee" d="M 945.5,595.5 C 953.174,595.334 960.841,595.5 968.5,596C 971.167,597.667 971.167,599.333 968.5,601C 965.854,601.497 963.187,601.664 960.5,601.5C 960.666,611.839 960.5,622.172 960,632.5C 958.301,633.406 956.467,633.739 954.5,633.5C 954.5,622.833 954.5,612.167 954.5,601.5C 951.091,601.751 947.758,601.417 944.5,600.5C 943.348,598.603 943.681,596.936 945.5,595.5 Z"/></g>
<g><path style="opacity:1" fill="#f6f6f5" d="M 981.5,596.5 C 983.144,596.286 984.644,596.62 986,597.5C 991.349,608.198 996.682,618.864 1002,629.5C 1002.61,633.088 1001.11,634.254 997.5,633C 995.839,630.036 994.172,627.036 992.5,624C 986.5,623.333 980.5,623.333 974.5,624C 972.828,627.036 971.161,630.036 969.5,633C 965.889,634.254 964.389,633.088 965,629.5C 970.498,618.505 975.998,607.505 981.5,596.5 Z"/></g>
<g><path style="opacity:1" fill="#f5f4f4" d="M 1007.5,596.5 C 1009.2,596.34 1010.87,596.506 1012.5,597C 1016.01,601.34 1019.68,605.507 1023.5,609.5C 1027.32,605.507 1030.99,601.34 1034.5,597C 1036.92,596.014 1038.59,596.681 1039.5,599C 1035.5,604.333 1031.5,609.667 1027.5,615C 1030.94,620.11 1034.77,624.943 1039,629.5C 1039.61,633.088 1038.11,634.254 1034.5,633C 1030.99,628.66 1027.32,624.493 1023.5,620.5C 1019.68,624.493 1016.01,628.66 1012.5,633C 1010.87,633.494 1009.2,633.66 1007.5,633.5C 1007.34,632.127 1007.51,630.793 1008,629.5C 1012.19,624.94 1016.03,620.106 1019.5,615C 1015.55,610.258 1011.71,605.424 1008,600.5C 1007.51,599.207 1007.34,597.873 1007.5,596.5 Z"/></g>
<g><path style="opacity:1" fill="#ededec" d="M 1045.5,596.5 C 1047.14,596.286 1048.64,596.62 1050,597.5C 1050.67,609.167 1050.67,620.833 1050,632.5C 1048.33,633.833 1046.67,633.833 1045,632.5C 1044.19,620.424 1044.36,608.424 1045.5,596.5 Z"/></g>
<g><path style="opacity:1" fill="#231915" d="M 988.5,616.5 C 985.167,617.833 981.833,617.833 978.5,616.5C 979.628,612.91 981.295,609.577 983.5,606.5C 985.705,609.577 987.372,612.91 988.5,616.5 Z"/></g>
<g><path style="opacity:1" fill="#87817e" d="M 978.5,616.5 C 981.833,617.833 985.167,617.833 988.5,616.5C 989.043,616.56 989.376,616.893 989.5,617.5C 985.5,618.833 981.5,618.833 977.5,617.5C 977.624,616.893 977.957,616.56 978.5,616.5 Z"/></g>
<g><path style="opacity:1" fill="#fefefe" d="M 791.5,658.5 C 854.167,658.5 916.833,658.5 979.5,658.5C 979.5,660.833 979.5,663.167 979.5,665.5C 963.908,664.705 948.575,666.205 933.5,670C 922.952,680.552 914.785,692.718 909,706.5C 907.081,712.178 907.081,717.844 909,723.5C 912.016,727.092 915.849,729.258 920.5,730C 934.702,732.787 949.035,734.454 963.5,735C 989.186,735.852 1014.85,735.518 1040.5,734C 1054.65,733.037 1068.32,730.037 1081.5,725C 1085.84,719.794 1086.68,713.96 1084,707.5C 1079.03,695.72 1072.2,685.22 1063.5,676C 1046.43,669.711 1028.76,666.877 1010.5,667.5C 1010.5,664.5 1010.5,661.5 1010.5,658.5C 1070.17,658.5 1129.83,658.5 1189.5,658.5C 1214.03,662.178 1234.19,673.511 1250,692.5C 1289.5,752.827 1328.5,813.494 1367,874.5C 1368.08,877.063 1368.58,879.729 1368.5,882.5C 1280.91,877.095 1193.25,873.595 1105.5,872C 1130.47,868.836 1155.47,866.003 1180.5,863.5C 1180.5,862.167 1180.5,860.833 1180.5,859.5C 1214.34,853.761 1248,847.094 1281.5,839.5C 1282.43,838.311 1282.76,836.978 1282.5,835.5C 1277.16,835.334 1271.82,835.501 1266.5,836C 1236.82,839.752 1207.15,843.585 1177.5,847.5C 1177.72,846.325 1177.39,845.325 1176.5,844.5C 1142,851.445 1107.5,858.445 1073,865.5C 1070.97,865.142 1069.13,864.308 1067.5,863C 1059.96,861.769 1055.63,864.936 1054.5,872.5C 977.478,872.018 900.478,873.018 823.5,875.5C 821.265,875.795 819.265,875.461 817.5,874.5C 843.178,871.953 868.845,869.287 894.5,866.5C 894.5,865.167 894.5,863.833 894.5,862.5C 927.882,856.326 961.215,849.826 994.5,843C 996.394,841.921 996.727,840.587 995.5,839C 990.5,838.333 985.5,838.333 980.5,839C 950.805,842.753 921.139,846.587 891.5,850.5C 891.5,849.5 891.5,848.5 891.5,847.5C 858.108,854.014 824.775,860.848 791.5,868C 785.777,867.63 780.11,866.964 774.5,866C 769.74,868.353 767.74,872.186 768.5,877.5C 723.811,879.016 679.144,881.016 634.5,883.5C 634.678,874.798 637.178,866.798 642,859.5C 673,803.5 704,747.5 735,691.5C 749.381,672.892 768.214,661.892 791.5,658.5 Z"/></g>
<g><path style="opacity:1" fill="#211612" d="M 791.5,658.5 C 924.167,657.167 1056.83,657.167 1189.5,658.5C 1129.83,658.5 1070.17,658.5 1010.5,658.5C 1010.5,661.5 1010.5,664.5 1010.5,667.5C 1028.76,666.877 1046.43,669.711 1063.5,676C 1072.2,685.22 1079.03,695.72 1084,707.5C 1086.68,713.96 1085.84,719.794 1081.5,725C 1068.32,730.037 1054.65,733.037 1040.5,734C 1014.85,735.518 989.186,735.852 963.5,735C 949.035,734.454 934.702,732.787 920.5,730C 915.849,729.258 912.016,727.092 909,723.5C 907.081,717.844 907.081,712.178 909,706.5C 914.785,692.718 922.952,680.552 933.5,670C 948.575,666.205 963.908,664.705 979.5,665.5C 979.5,663.167 979.5,660.833 979.5,658.5C 916.833,658.5 854.167,658.5 791.5,658.5 Z"/></g>
<g><path style="opacity:0.996" fill="#dc8200" d="M 4169.5,692.5 C 4192.01,715.846 4206.34,743.512 4212.5,775.5C 4212.5,1139.5 4212.5,1503.5 4212.5,1867.5C 4207.54,1903.27 4189.87,1930.77 4159.5,1950C 4142.27,1959.1 4123.93,1962.6 4104.5,1960.5C 4120.76,1957.2 4135.43,1950.37 4148.5,1940C 4173.68,1916.79 4186.85,1887.96 4188,1853.5C 4188.67,1487.17 4188.67,1120.83 4188,754.5C 4187.36,732.084 4181.19,711.418 4169.5,692.5 Z"/></g>
<g><path style="opacity:1" fill="#f6ba00" d="M 1934.5,715.5 C 2655.17,715.333 3375.83,715.5 4096.5,716C 4104.19,719.026 4110.03,724.192 4114,731.5C 4116.56,736.624 4118.56,741.957 4120,747.5C 4120.67,1117.83 4120.67,1488.17 4120,1858.5C 4118.76,1870.15 4113.92,1879.99 4105.5,1888C 4102.95,1890.44 4099.95,1892.11 4096.5,1893C 3224.83,1893.67 2353.17,1893.67 1481.5,1893C 1535.78,1836.26 1589.95,1779.43 1644,1722.5C 1665.33,1701.17 1686.67,1679.83 1708,1658.5C 1870.56,1480.26 1958.23,1269.92 1971,1027.5C 1975.53,921.439 1963.36,817.439 1934.5,715.5 Z"/></g>
<g><path style="opacity:1" fill="#5a524e" d="M 817.5,874.5 C 819.265,875.461 821.265,875.795 823.5,875.5C 819.019,876.648 814.352,876.815 809.5,876C 812.207,875.605 814.873,875.105 817.5,874.5 Z"/></g>
<g><path style="opacity:1" fill="#c09004" d="M 2920.5,991.5 C 2937.66,990.503 2954.99,990.17 2972.5,990.5C 2972.74,991.791 2972.4,992.791 2971.5,993.5C 2954.87,991.514 2937.87,990.848 2920.5,991.5 Z"/></g>
<g><path style="opacity:1" fill="#1f140f" d="M 2024.5,991.5 C 2042.83,991.5 2061.17,991.5 2079.5,991.5C 2079.33,1048.17 2079.5,1104.83 2080,1161.5C 2080.96,1170.93 2085.29,1172.93 2093,1167.5C 2093.82,1165.21 2094.49,1162.88 2095,1160.5C 2095.5,1104.17 2095.67,1047.83 2095.5,991.5C 2113.5,991.5 2131.5,991.5 2149.5,991.5C 2149.67,1048.83 2149.5,1106.17 2149,1163.5C 2144.37,1184.8 2131.54,1198.3 2110.5,1204C 2084.56,1210.16 2060.89,1205.49 2039.5,1190C 2029.11,1178.16 2024.27,1164.32 2025,1148.5C 2024.5,1096.17 2024.33,1043.83 2024.5,991.5 Z"/></g>
<g><path style="opacity:1" fill="#1f140f" d="M 2285.5,1033.5 C 2274.5,1033.5 2263.5,1033.5 2252.5,1033.5C 2252.5,1089.5 2252.5,1145.5 2252.5,1201.5C 2234.5,1201.5 2216.5,1201.5 2198.5,1201.5C 2198.83,1145.33 2198.5,1089.33 2197.5,1033.5C 2186.83,1033.5 2176.17,1033.5 2165.5,1033.5C 2165.5,1019.5 2165.5,1005.5 2165.5,991.5C 2205.5,991.5 2245.5,991.5 2285.5,991.5C 2285.5,1005.5 2285.5,1019.5 2285.5,1033.5 Z"/></g>
<g><path style="opacity:1" fill="#1f140f" d="M 2291.5,991.5 C 2331.5,991.5 2371.5,991.5 2411.5,991.5C 2411.5,1005.5 2411.5,1019.5 2411.5,1033.5C 2400.5,1033.5 2389.5,1033.5 2378.5,1033.5C 2378.5,1089.5 2378.5,1145.5 2378.5,1201.5C 2360.5,1201.5 2342.5,1201.5 2324.5,1201.5C 2324.5,1145.5 2324.5,1089.5 2324.5,1033.5C 2313.5,1033.5 2302.5,1033.5 2291.5,1033.5C 2291.5,1019.5 2291.5,1005.5 2291.5,991.5 Z"/></g>
<g><path style="opacity:1" fill="#1f140f" d="M 2542.5,1199.5 C 2524.2,1201.49 2505.53,1202.15 2486.5,1201.5C 2485.67,1189.17 2484.83,1176.84 2484,1164.5C 2477.59,1163.52 2471.09,1163.19 2464.5,1163.5C 2463.5,1176.17 2462.5,1188.83 2461.5,1201.5C 2442.5,1201.5 2423.5,1201.5 2404.5,1201.5C 2413.61,1131.48 2422.95,1061.48 2432.5,991.5C 2458.83,991.5 2485.17,991.5 2511.5,991.5C 2521.83,1060.83 2532.17,1130.17 2542.5,1199.5 Z"/></g>
<g><path style="opacity:1" fill="#1f140f" d="M 2556.5,991.5 C 2584.19,991.102 2611.86,991.602 2639.5,993C 2660.84,996.009 2673.34,1008.18 2677,1029.5C 2677.67,1042.17 2677.67,1054.83 2677,1067.5C 2675.84,1073.98 2673.34,1079.82 2669.5,1085C 2663.36,1088.72 2656.69,1091.05 2649.5,1092C 2663.12,1094.86 2672.29,1102.69 2677,1115.5C 2677.5,1144.16 2677.67,1172.83 2677.5,1201.5C 2660.83,1201.5 2644.17,1201.5 2627.5,1201.5C 2627.95,1172.46 2627.45,1143.46 2626,1114.5C 2625.65,1112.15 2624.49,1110.32 2622.5,1109C 2618.58,1107.84 2614.58,1107.34 2610.5,1107.5C 2610.5,1138.83 2610.5,1170.17 2610.5,1201.5C 2592.5,1201.5 2574.5,1201.5 2556.5,1201.5C 2556.5,1131.5 2556.5,1061.5 2556.5,991.5 Z"/></g>
<g><path style="opacity:1" fill="#1f140f" d="M 2717.5,991.5 C 2744.17,991.167 2770.84,991.5 2797.5,992.5C 2808.3,1062.09 2818.63,1131.76 2828.5,1201.5C 2809.83,1201.5 2791.17,1201.5 2772.5,1201.5C 2772.26,1189.08 2771.26,1176.75 2769.5,1164.5C 2763.2,1163.5 2756.87,1163.17 2750.5,1163.5C 2749.39,1176.16 2748.39,1188.82 2747.5,1201.5C 2728.5,1201.5 2709.5,1201.5 2690.5,1201.5C 2699.82,1131.55 2708.82,1061.55 2717.5,991.5 Z"/></g>
<g><path style="opacity:1" fill="#1f140f" d="M 2920.5,991.5 C 2937.87,990.848 2954.87,991.514 2971.5,993.5C 2960.97,1024.41 2950.64,1055.41 2940.5,1086.5C 2952.41,1124.32 2963.74,1162.32 2974.5,1200.5C 2956.01,1201.5 2937.34,1201.83 2918.5,1201.5C 2918.74,1200.21 2918.4,1199.21 2917.5,1198.5C 2910.82,1170.13 2903.99,1141.79 2897,1113.5C 2896.5,1142.83 2896.33,1172.16 2896.5,1201.5C 2878.17,1201.5 2859.83,1201.5 2841.5,1201.5C 2841.5,1131.5 2841.5,1061.5 2841.5,991.5C 2859.83,991.5 2878.17,991.5 2896.5,991.5C 2896.33,1017.84 2896.5,1044.17 2897,1070.5C 2904.77,1044.14 2912.6,1017.81 2920.5,991.5 Z"/></g>
<g><path style="opacity:1" fill="#1e140e" d="M 2988.5,991.5 C 3006.5,991.5 3024.5,991.5 3042.5,991.5C 3042.5,1016.5 3042.5,1041.5 3042.5,1066.5C 3048.17,1066.5 3053.83,1066.5 3059.5,1066.5C 3059.5,1041.5 3059.5,1016.5 3059.5,991.5C 3077.5,991.5 3095.5,991.5 3113.5,991.5C 3113.5,1061.5 3113.5,1131.5 3113.5,1201.5C 3095.5,1201.5 3077.5,1201.5 3059.5,1201.5C 3059.5,1172.17 3059.5,1142.83 3059.5,1113.5C 3053.83,1113.5 3048.17,1113.5 3042.5,1113.5C 3042.5,1142.83 3042.5,1172.17 3042.5,1201.5C 3024.5,1201.5 3006.5,1201.5 2988.5,1201.5C 2988.5,1131.5 2988.5,1061.5 2988.5,991.5 Z"/></g>
<g><path style="opacity:1" fill="#1f140f" d="M 3154.5,991.5 C 3181.17,991.5 3207.83,991.5 3234.5,991.5C 3244.65,1061.53 3254.98,1131.53 3265.5,1201.5C 3246.83,1201.5 3228.17,1201.5 3209.5,1201.5C 3208.58,1188.83 3207.58,1176.16 3206.5,1163.5C 3199.91,1163.19 3193.41,1163.52 3187,1164.5C 3185.73,1176.81 3184.89,1189.14 3184.5,1201.5C 3165.5,1201.5 3146.5,1201.5 3127.5,1201.5C 3136.76,1131.52 3145.76,1061.52 3154.5,991.5 Z"/></g>
<g><path style="opacity:1" fill="#1f140f" d="M 3353.5,1082.5 C 3353.37,1083.38 3353.7,1084.04 3354.5,1084.5C 3355.5,1053.51 3355.83,1022.51 3355.5,991.5C 3370.5,991.5 3385.5,991.5 3400.5,991.5C 3400.5,1061.5 3400.5,1131.5 3400.5,1201.5C 3384.49,1201.83 3368.49,1201.5 3352.5,1200.5C 3343.33,1169.84 3334.17,1139.17 3325,1108.5C 3324.5,1139.5 3324.33,1170.5 3324.5,1201.5C 3309.17,1201.5 3293.83,1201.5 3278.5,1201.5C 3278.5,1131.5 3278.5,1061.5 3278.5,991.5C 3293.85,991.167 3309.18,991.501 3324.5,992.5C 3334.79,1022.33 3344.46,1052.33 3353.5,1082.5 Z"/></g>
<g><path style="opacity:1" fill="#543d0b" d="M 3355.5,991.5 C 3355.83,1022.51 3355.5,1053.51 3354.5,1084.5C 3353.7,1084.04 3353.37,1083.38 3353.5,1082.5C 3354.17,1052.17 3354.83,1021.83 3355.5,991.5 Z"/></g>
<g><path style="opacity:1" fill="#1f140f" d="M 3426.5,991.5 C 3450.84,991.333 3475.17,991.5 3499.5,992C 3513.54,992.168 3526.54,995.835 3538.5,1003C 3544.77,1008.94 3548.94,1016.1 3551,1024.5C 3551.73,1031.49 3552.39,1038.49 3553,1045.5C 3553.91,1086.85 3553.58,1128.18 3552,1169.5C 3549.16,1189.33 3537.66,1199.83 3517.5,1201C 3487.17,1201.5 3456.84,1201.67 3426.5,1201.5C 3426.5,1131.5 3426.5,1061.5 3426.5,991.5 Z"/></g>
<g><path style="opacity:1" fill="#fefefe" d="M 1365.5,1000.5 C 1404.02,997.905 1431.52,1013.9 1448,1048.5C 1458.41,1080.67 1451.91,1108.84 1428.5,1133C 1403.42,1153.52 1375.76,1157.85 1345.5,1146C 1310.35,1126.86 1296.18,1097.36 1303,1057.5C 1313.22,1026.78 1334.05,1007.78 1365.5,1000.5 Z"/></g>
<g><path style="opacity:1" fill="#fefefe" d="M 625.5,1015.5 C 657.109,1013.72 681.943,1025.72 700,1051.5C 710.372,1069.99 713.372,1089.66 709,1110.5C 694.888,1152.23 665.722,1171.06 621.5,1167C 587.469,1158.97 566.969,1137.8 560,1103.5C 556.482,1063.71 572.982,1035.87 609.5,1020C 614.874,1018.16 620.207,1016.66 625.5,1015.5 Z"/></g>
<g><path style="opacity:1" fill="#fbfbfb" d="M 873.5,1015.5 C 970.834,1015.33 1068.17,1015.5 1165.5,1016C 1176.67,1017.51 1183.84,1023.67 1187,1034.5C 1192.33,1061.17 1197.67,1087.83 1203,1114.5C 1204.52,1123.96 1203.18,1132.96 1199,1141.5C 1196.74,1144.43 1193.9,1146.6 1190.5,1148C 1073.78,1148.99 957.111,1148.66 840.5,1147C 833.773,1143.94 829.606,1138.77 828,1131.5C 827.333,1126.17 827.333,1120.83 828,1115.5C 834.818,1088.56 841.485,1061.56 848,1034.5C 853.169,1023.67 861.669,1017.34 873.5,1015.5 Z"/></g>
<g><path style="opacity:1" fill="#221713" d="M 887.5,1022.5 C 974.834,1022.33 1062.17,1022.5 1149.5,1023C 1156.84,1024 1162.51,1027.5 1166.5,1033.5C 1170.63,1033.73 1173.96,1035.39 1176.5,1038.5C 1175.43,1039.08 1174.43,1038.58 1173.5,1037C 1068.5,1036.33 963.5,1036.33 858.5,1037C 855.107,1040.07 854.773,1039.57 857.5,1035.5C 864.662,1036.2 870.328,1033.7 874.5,1028C 878.741,1025.65 883.075,1023.82 887.5,1022.5 Z"/></g>
<g><path style="opacity:1" fill="#bb8c04" d="M 2611.5,1027.5 C 2611.5,1042.83 2611.5,1058.17 2611.5,1073.5C 2612.83,1073.5 2614.17,1073.5 2615.5,1073.5C 2614.08,1074.45 2612.41,1074.78 2610.5,1074.5C 2610.17,1058.66 2610.5,1042.99 2611.5,1027.5 Z"/></g>
<g><path style="opacity:1" fill="#f0b601" d="M 2611.5,1027.5 C 2619.44,1026.71 2624.61,1030.05 2627,1037.5C 2627.9,1047.56 2627.56,1057.56 2626,1067.5C 2623.88,1071.82 2620.38,1073.82 2615.5,1073.5C 2614.17,1073.5 2612.83,1073.5 2611.5,1073.5C 2611.5,1058.17 2611.5,1042.83 2611.5,1027.5 Z"/></g>
<g><path style="opacity:1" fill="#f3b800" d="M 3481.5,1027.5 C 3485.27,1027.26 3488.94,1027.76 3492.5,1029C 3494.67,1029.83 3496.17,1031.33 3497,1033.5C 3498.14,1053.12 3498.64,1072.78 3498.5,1092.5C 3498.61,1113.86 3498.11,1135.19 3497,1156.5C 3494.44,1163.71 3489.27,1166.71 3481.5,1165.5C 3481.5,1119.5 3481.5,1073.5 3481.5,1027.5 Z"/></g>
<g><path style="opacity:1" fill="#c09004" d="M 2285.5,1033.5 C 2275.01,1034.49 2264.35,1034.83 2253.5,1034.5C 2253.83,1090.34 2253.5,1146 2252.5,1201.5C 2252.5,1145.5 2252.5,1089.5 2252.5,1033.5C 2263.5,1033.5 2274.5,1033.5 2285.5,1033.5 Z"/></g>
<g><path style="opacity:1" fill="#efb401" d="M 2473.5,1041.5 C 2474.29,1042.61 2474.79,1043.94 2475,1045.5C 2476.58,1072.6 2479.08,1099.6 2482.5,1126.5C 2476.17,1126.5 2469.83,1126.5 2463.5,1126.5C 2466.75,1098.15 2470.09,1069.81 2473.5,1041.5 Z"/></g>
<g><path style="opacity:1" fill="#f1b600" d="M 2759.5,1040.5 C 2762.13,1069.07 2765.13,1097.74 2768.5,1126.5C 2762.13,1126.83 2755.8,1126.5 2749.5,1125.5C 2752.75,1097.17 2756.08,1068.84 2759.5,1040.5 Z"/></g>
<g><path style="opacity:1" fill="#f1b600" d="M 3196.5,1041.5 C 3199.27,1069.68 3201.94,1098.01 3204.5,1126.5C 3198.5,1126.5 3192.5,1126.5 3186.5,1126.5C 3188.9,1098.03 3192.23,1069.7 3196.5,1041.5 Z"/></g>
<g><path style="opacity:1" fill="#221814" d="M 863.5,1049.5 C 966.167,1049.5 1068.83,1049.5 1171.5,1049.5C 1171.78,1053.19 1172.28,1056.85 1173,1060.5C 1175.74,1061.28 1178.57,1061.78 1181.5,1062C 1182.71,1062.89 1182.71,1063.73 1181.5,1064.5C 1072.87,1063.34 964.207,1063.17 855.5,1064C 853.741,1065.01 852.574,1066.51 852,1068.5C 851.83,1062.85 854.663,1060.52 860.5,1061.5C 861.192,1057.4 862.192,1053.4 863.5,1049.5 Z"/></g>
<g><path style="opacity:1" fill="#574f4b" d="M 1176.5,1077.5 C 1069.83,1076.17 963.167,1076.17 856.5,1077.5C 909.496,1076.17 962.829,1075.5 1016.5,1075.5C 1070.17,1075.5 1123.5,1076.17 1176.5,1077.5 Z"/></g>
<g><path style="opacity:1" fill="#1f140f" d="M 1176.5,1077.5 C 1177.29,1080.8 1177.96,1084.14 1178.5,1087.5C 1183.32,1086.37 1186.16,1088.04 1187,1092.5C 1186.29,1091.62 1185.46,1090.95 1184.5,1090.5C 1073.5,1089.83 962.5,1089.17 851.5,1088.5C 852.87,1088.14 853.87,1087.31 854.5,1086C 855.406,1083.21 856.073,1080.38 856.5,1077.5C 963.167,1076.17 1069.83,1076.17 1176.5,1077.5 Z"/></g>
<g><path style="opacity:1" fill="#c6c3c2" d="M 851.5,1088.5 C 962.5,1089.17 1073.5,1089.83 1184.5,1090.5C 1072.83,1090.67 961.166,1090.5 849.5,1090C 850.044,1089.28 850.711,1088.78 851.5,1088.5 Z"/></g>
<g><path style="opacity:1" fill="#1f140f" d="M 1187.5,1115.5 C 1072.67,1115.17 957.999,1115.5 843.5,1116.5C 841.248,1116.92 839.748,1118.25 839,1120.5C 838.376,1118.54 838.876,1116.87 840.5,1115.5C 842.747,1114.63 845.08,1114.29 847.5,1114.5C 847.883,1110.68 848.883,1107.01 850.5,1103.5C 960.833,1102.17 1071.17,1102.17 1181.5,1103.5C 1182.68,1107.07 1183.35,1110.74 1183.5,1114.5C 1185.1,1114.23 1186.43,1114.57 1187.5,1115.5 Z"/></g>
<g><path style="opacity:1" fill="#564e4a" d="M 843.5,1116.5 C 957.999,1115.5 1072.67,1115.17 1187.5,1115.5C 1189.61,1116.05 1190.44,1117.39 1190,1119.5C 1189.17,1118.67 1188.33,1117.83 1187.5,1117C 1072.83,1116.5 958.167,1116.33 843.5,1116.5 Z"/></g>
<g><path style="opacity:1" fill="#574f4b" d="M 1181.5,1130.5 C 1070.83,1129.17 960.167,1129.17 849.5,1130.5C 848.957,1130.44 848.624,1130.11 848.5,1129.5C 959.833,1128.17 1071.17,1128.17 1182.5,1129.5C 1182.38,1130.11 1182.04,1130.44 1181.5,1130.5 Z"/></g>
<g><path style="opacity:1" fill="#1f140f" d="M 1181.5,1130.5 C 1180.28,1136.56 1176.61,1140.06 1170.5,1141C 1067.5,1141.67 964.5,1141.67 861.5,1141C 855.581,1139.56 851.581,1136.06 849.5,1130.5C 960.167,1129.17 1070.83,1129.17 1181.5,1130.5 Z"/></g>
<g><path style="opacity:1" fill="#73540a" d="M 2197.5,1033.5 C 2198.5,1089.33 2198.83,1145.33 2198.5,1201.5C 2216.5,1201.5 2234.5,1201.5 2252.5,1201.5C 2234.34,1202.5 2216.01,1202.83 2197.5,1202.5C 2197.5,1146.17 2197.5,1089.83 2197.5,1033.5 Z"/></g>
<g><path style="opacity:1" fill="#8d6907" d="M 2542.5,1199.5 C 2543.4,1200.21 2543.74,1201.21 2543.5,1202.5C 2524.33,1202.83 2505.33,1202.5 2486.5,1201.5C 2505.53,1202.15 2524.2,1201.49 2542.5,1199.5 Z"/></g>
<g><path style="opacity:1" fill="#72540a" d="M 2556.5,991.5 C 2556.5,1061.5 2556.5,1131.5 2556.5,1201.5C 2574.5,1201.5 2592.5,1201.5 2610.5,1201.5C 2592.34,1202.5 2574.01,1202.83 2555.5,1202.5C 2555.17,1132 2555.5,1061.66 2556.5,991.5 Z"/></g>
<g><path style="opacity:1" fill="#8e6907" d="M 2917.5,1198.5 C 2918.4,1199.21 2918.74,1200.21 2918.5,1201.5C 2937.34,1201.83 2956.01,1201.5 2974.5,1200.5C 2975.04,1200.56 2975.38,1200.89 2975.5,1201.5C 2956.18,1202.5 2936.84,1202.83 2917.5,1202.5C 2917.5,1201.17 2917.5,1199.83 2917.5,1198.5 Z"/></g>
<g><path style="opacity:1" fill="#fdfdfd" d="M 594.5,1257.5 C 618.104,1261.73 641.437,1267.23 664.5,1274C 667.106,1275.94 668.939,1278.44 670,1281.5C 672.304,1288.04 673.638,1294.7 674,1301.5C 672.681,1303.49 670.848,1304.65 668.5,1305C 641.167,1305.67 613.833,1305.67 586.5,1305C 585.299,1304.1 584.465,1302.93 584,1301.5C 583.333,1297.17 583.333,1292.83 584,1288.5C 585.748,1280.18 587.415,1271.84 589,1263.5C 590.36,1260.98 592.193,1258.98 594.5,1257.5 Z"/></g>
<g><path style="opacity:1" fill="#fdfcfc" d="M 1430.5,1257.5 C 1436.9,1256.79 1441.07,1259.45 1443,1265.5C 1444.99,1275.26 1446.49,1285.1 1447.5,1295C 1448.04,1298.92 1447.04,1302.25 1444.5,1305C 1416.83,1305.67 1389.17,1305.67 1361.5,1305C 1360.07,1304.53 1358.9,1303.7 1358,1302.5C 1357.56,1293.79 1359.23,1285.46 1363,1277.5C 1364.17,1276.33 1365.33,1275.17 1366.5,1274C 1387.88,1268.16 1409.21,1262.66 1430.5,1257.5 Z"/></g>
<g><path style="opacity:1" fill="#1f140f" d="M 2933.5,1265.5 C 2956.45,1261.95 2977.78,1266.12 2997.5,1278C 3006.13,1285.09 3010.63,1294.25 3011,1305.5C 3011.5,1314.83 3011.67,1324.16 3011.5,1333.5C 2994.5,1333.5 2977.5,1333.5 2960.5,1333.5C 2960.67,1324.49 2960.5,1315.49 2960,1306.5C 2955.31,1298.84 2949.98,1298.51 2944,1305.5C 2941.53,1315.41 2942.2,1325.07 2946,1334.5C 2948.54,1337.37 2951.37,1339.87 2954.5,1342C 2973.01,1351.84 2989.84,1364.01 3005,1378.5C 3010.3,1386.39 3013.63,1395.05 3015,1404.5C 3015.67,1416.83 3015.67,1429.17 3015,1441.5C 3014.1,1459.49 3005.26,1471.66 2988.5,1478C 2960.88,1488.61 2934.55,1486.28 2909.5,1471C 2898.72,1460.94 2893.22,1448.44 2893,1433.5C 2892.5,1423.84 2892.33,1414.17 2892.5,1404.5C 2909.5,1404.5 2926.5,1404.5 2943.5,1404.5C 2943.33,1416.17 2943.5,1427.84 2944,1439.5C 2945.45,1448.39 2950.28,1450.89 2958.5,1447C 2960.62,1445.27 2962.12,1443.1 2963,1440.5C 2963.89,1431.1 2963.55,1421.77 2962,1412.5C 2960.26,1408.76 2957.76,1405.59 2954.5,1403C 2941.83,1394.33 2929.17,1385.67 2916.5,1377C 2901.88,1367.94 2893.71,1354.77 2892,1337.5C 2891.33,1326.17 2891.33,1314.83 2892,1303.5C 2894.97,1286.19 2904.81,1274.69 2921.5,1269C 2925.75,1268.26 2929.75,1267.09 2933.5,1265.5 Z"/></g>
<g><path style="opacity:1" fill="#1f140f" d="M 3084.5,1265.5 C 3102.72,1263.26 3120.05,1266.1 3136.5,1274C 3151.21,1283.9 3159.37,1297.74 3161,1315.5C 3161.95,1357.53 3161.62,1399.53 3160,1441.5C 3154.53,1462.97 3141.03,1476.47 3119.5,1482C 3096.12,1487.8 3074.45,1484.14 3054.5,1471C 3043.09,1460.35 3036.93,1447.19 3036,1431.5C 3035.33,1393.5 3035.33,1355.5 3036,1317.5C 3038.92,1287.75 3055.09,1270.41 3084.5,1265.5 Z"/></g>
<g><path style="opacity:1" fill="#1f140f" d="M 3692.5,1265.5 C 3714.16,1262.33 3734.16,1266.5 3752.5,1278C 3762.98,1287.16 3769.15,1298.66 3771,1312.5C 3771.67,1353.17 3771.67,1393.83 3771,1434.5C 3767.24,1461.27 3752.07,1477.43 3725.5,1483C 3706.16,1486.94 3687.82,1484.27 3670.5,1475C 3658.09,1466.71 3650.26,1455.21 3647,1440.5C 3645.89,1418.52 3645.39,1396.52 3645.5,1374.5C 3645.4,1352.14 3645.9,1329.81 3647,1307.5C 3651.35,1290.83 3661.18,1278.66 3676.5,1271C 3681.87,1268.85 3687.21,1267.02 3692.5,1265.5 Z"/></g>
<g><path style="opacity:1" fill="#1f140f" d="M 4059.5,1323.5 C 4059.5,1326.5 4059.5,1329.5 4059.5,1332.5C 4042.83,1332.5 4026.17,1332.5 4009.5,1332.5C 4009.82,1325.31 4009.49,1318.31 4008.5,1311.5C 4009.18,1303.34 4005.51,1299.84 3997.5,1301C 3991.9,1304.78 3989.56,1310.11 3990.5,1317C 3989.75,1327.11 3993.42,1335.11 4001.5,1341C 4020.86,1351.27 4038.36,1364.1 4054,1379.5C 4059.72,1388.67 4063.06,1398.67 4064,1409.5C 4064.96,1423.58 4064.29,1437.58 4062,1451.5C 4057.95,1464.55 4049.45,1473.38 4036.5,1478C 4008.34,1488.8 3981.68,1486.13 3956.5,1470C 3947.79,1461.75 3942.96,1451.58 3942,1439.5C 3940.81,1427.86 3940.31,1416.2 3940.5,1404.5C 3957.5,1404.5 3974.5,1404.5 3991.5,1404.5C 3991.33,1415.17 3991.5,1425.84 3992,1436.5C 3992.18,1447.34 3997.34,1450.84 4007.5,1447C 4011.62,1441.91 4013.29,1436.07 4012.5,1429.5C 4012.69,1422.59 4011.52,1415.93 4009,1409.5C 4004.42,1404.25 3999.26,1399.75 3993.5,1396C 3979.98,1387.74 3966.98,1378.74 3954.5,1369C 3946.86,1360.22 3942.03,1350.05 3940,1338.5C 3938.97,1324.4 3939.64,1310.4 3942,1296.5C 3949.7,1278.82 3963.2,1268.66 3982.5,1266C 4006.55,1261.74 4028.55,1266.41 4048.5,1280C 4053.83,1285.01 4057,1291.18 4058,1298.5C 4059.12,1306.8 4059.62,1315.13 4059.5,1323.5 Z"/></g>
<g><path style="opacity:1" fill="#be8f04" d="M 2504.5,1269.5 C 2523.66,1268.5 2542.99,1268.17 2562.5,1268.5C 2562.79,1270.74 2562.46,1272.74 2561.5,1274.5C 2561.5,1272.83 2561.5,1271.17 2561.5,1269.5C 2542.5,1269.5 2523.5,1269.5 2504.5,1269.5 Z"/></g>
<g><path style="opacity:1" fill="#1e140e" d="M 2016.5,1269.5 C 2056.17,1269.5 2095.83,1269.5 2135.5,1269.5C 2135.5,1283.5 2135.5,1297.5 2135.5,1311.5C 2124.83,1311.5 2114.17,1311.5 2103.5,1311.5C 2103.5,1367.5 2103.5,1423.5 2103.5,1479.5C 2085.17,1479.5 2066.83,1479.5 2048.5,1479.5C 2048.5,1423.5 2048.5,1367.5 2048.5,1311.5C 2037.83,1311.5 2027.17,1311.5 2016.5,1311.5C 2016.5,1297.5 2016.5,1283.5 2016.5,1269.5 Z"/></g>
<g><path style="opacity:1" fill="#1f140f" d="M 2152.5,1269.5 C 2180.19,1269.1 2207.86,1269.6 2235.5,1271C 2259.45,1274.96 2272.29,1289.13 2274,1313.5C 2275.51,1328.12 2274.18,1342.45 2270,1356.5C 2267.75,1361.71 2263.92,1365.21 2258.5,1367C 2254.26,1368.41 2249.93,1369.41 2245.5,1370C 2258.91,1372.44 2268.08,1379.94 2273,1392.5C 2273.5,1395.82 2273.67,1399.15 2273.5,1402.5C 2273.5,1428.17 2273.5,1453.83 2273.5,1479.5C 2256.83,1479.5 2240.17,1479.5 2223.5,1479.5C 2223.67,1451.83 2223.5,1424.16 2223,1396.5C 2221.58,1387.02 2216.08,1383.36 2206.5,1385.5C 2206.5,1416.83 2206.5,1448.17 2206.5,1479.5C 2188.5,1479.5 2170.5,1479.5 2152.5,1479.5C 2152.5,1409.5 2152.5,1339.5 2152.5,1269.5 Z"/></g>
<g><path style="opacity:1" fill="#1f140f" d="M 2424.5,1477.5 C 2406.2,1479.49 2387.53,1480.15 2368.5,1479.5C 2367.63,1467.85 2366.96,1456.18 2366.5,1444.5C 2366.5,1443.5 2366.5,1442.5 2366.5,1441.5C 2359.65,1441.18 2352.98,1441.51 2346.5,1442.5C 2345.56,1454.84 2344.56,1467.17 2343.5,1479.5C 2324.5,1479.67 2305.5,1479.5 2286.5,1479C 2295.81,1409.9 2304.98,1340.73 2314,1271.5C 2340.61,1269.51 2367.44,1268.85 2394.5,1269.5C 2404.17,1338.88 2414.17,1408.21 2424.5,1477.5 Z"/></g>
<g><path style="opacity:1" fill="#1f140f" d="M 2490.5,1404.5 C 2491.79,1417.72 2492.46,1417.72 2492.5,1404.5C 2495.96,1359.45 2499.96,1314.45 2504.5,1269.5C 2523.5,1269.5 2542.5,1269.5 2561.5,1269.5C 2561.5,1271.17 2561.5,1272.83 2561.5,1274.5C 2552.2,1342.79 2543.2,1411.12 2534.5,1479.5C 2506.5,1479.5 2478.5,1479.5 2450.5,1479.5C 2440.91,1409.39 2430.58,1339.39 2419.5,1269.5C 2438.83,1269.5 2458.17,1269.5 2477.5,1269.5C 2482.95,1314.38 2487.29,1359.38 2490.5,1404.5 Z"/></g>
<g><path style="opacity:1" fill="#1e140e" d="M 2666.5,1311.5 C 2654.17,1311.5 2641.83,1311.5 2629.5,1311.5C 2629.5,1324.83 2629.5,1338.17 2629.5,1351.5C 2640.83,1351.5 2652.17,1351.5 2663.5,1351.5C 2663.5,1364.83 2663.5,1378.17 2663.5,1391.5C 2652.17,1391.5 2640.83,1391.5 2629.5,1391.5C 2629.5,1406.83 2629.5,1422.17 2629.5,1437.5C 2642.83,1437.5 2656.17,1437.5 2669.5,1437.5C 2669.5,1451.5 2669.5,1465.5 2669.5,1479.5C 2638.17,1479.5 2606.83,1479.5 2575.5,1479.5C 2575.5,1409.5 2575.5,1339.5 2575.5,1269.5C 2605.83,1269.5 2636.17,1269.5 2666.5,1269.5C 2666.5,1283.5 2666.5,1297.5 2666.5,1311.5 Z"/></g>
<g><path style="opacity:1" fill="#1f140f" d="M 2689.5,1269.5 C 2707.83,1269.5 2726.17,1269.5 2744.5,1269.5C 2744.5,1325.5 2744.5,1381.5 2744.5,1437.5C 2755.5,1437.5 2766.5,1437.5 2777.5,1437.5C 2777.5,1451.5 2777.5,1465.5 2777.5,1479.5C 2748.17,1479.5 2718.83,1479.5 2689.5,1479.5C 2689.5,1409.5 2689.5,1339.5 2689.5,1269.5 Z"/></g>
<g><path style="opacity:1" fill="#1e140e" d="M 3186.5,1269.5 C 3204.5,1269.5 3222.5,1269.5 3240.5,1269.5C 3240.5,1325.5 3240.5,1381.5 3240.5,1437.5C 3251.5,1437.5 3262.5,1437.5 3273.5,1437.5C 3273.5,1451.5 3273.5,1465.5 3273.5,1479.5C 3244.5,1479.5 3215.5,1479.5 3186.5,1479.5C 3186.5,1409.5 3186.5,1339.5 3186.5,1269.5 Z"/></g>
<g><path style="opacity:1" fill="#1f140f" d="M 3290.5,1269.5 C 3308.5,1269.5 3326.5,1269.5 3344.5,1269.5C 3344.33,1325.83 3344.5,1382.17 3345,1438.5C 3345.71,1447.58 3350.04,1450.25 3358,1446.5C 3359.04,1444.29 3359.71,1441.95 3360,1439.5C 3360.5,1382.83 3360.67,1326.17 3360.5,1269.5C 3378.83,1269.5 3397.17,1269.5 3415.5,1269.5C 3415.93,1327.51 3415.43,1385.51 3414,1443.5C 3409,1462.5 3397.17,1475 3378.5,1481C 3355.03,1487.6 3332.7,1484.93 3311.5,1473C 3298.54,1463.93 3291.71,1451.43 3291,1435.5C 3290.5,1380.17 3290.33,1324.83 3290.5,1269.5 Z"/></g>
<g><path style="opacity:1" fill="#1f140f" d="M 3430.5,1269.5 C 3470.5,1269.5 3510.5,1269.5 3550.5,1269.5C 3550.5,1283.5 3550.5,1297.5 3550.5,1311.5C 3539.5,1311.5 3528.5,1311.5 3517.5,1311.5C 3517.5,1367.5 3517.5,1423.5 3517.5,1479.5C 3499.5,1479.5 3481.5,1479.5 3463.5,1479.5C 3463.5,1423.5 3463.5,1367.5 3463.5,1311.5C 3452.5,1311.5 3441.5,1311.5 3430.5,1311.5C 3430.5,1297.5 3430.5,1283.5 3430.5,1269.5 Z"/></g>
<g><path style="opacity:1" fill="#1e140e" d="M 3620.5,1269.5 C 3620.5,1339.5 3620.5,1409.5 3620.5,1479.5C 3602.5,1479.5 3584.5,1479.5 3566.5,1479.5C 3566.5,1409.5 3566.5,1339.5 3566.5,1269.5C 3584.5,1269.5 3602.5,1269.5 3620.5,1269.5 Z"/></g>
<g><path style="opacity:1" fill="#1f140f" d="M 3870.5,1358.5 C 3871.09,1359.77 3871.59,1361.1 3872,1362.5C 3872.5,1331.5 3872.67,1300.5 3872.5,1269.5C 3887.5,1269.5 3902.5,1269.5 3917.5,1269.5C 3917.5,1339.5 3917.5,1409.5 3917.5,1479.5C 3901.83,1479.5 3886.17,1479.5 3870.5,1479.5C 3861.52,1449.6 3852.52,1419.6 3843.5,1389.5C 3843.54,1388.24 3843.04,1387.24 3842,1386.5C 3841.5,1417.5 3841.33,1448.5 3841.5,1479.5C 3826.5,1479.5 3811.5,1479.5 3796.5,1479.5C 3796.5,1409.5 3796.5,1339.5 3796.5,1269.5C 3811.83,1269.5 3827.17,1269.5 3842.5,1269.5C 3851.83,1299.16 3861.16,1328.83 3870.5,1358.5 Z"/></g>
<g><path style="opacity:1" fill="#bf8f04" d="M 3872.5,1269.5 C 3872.67,1300.5 3872.5,1331.5 3872,1362.5C 3871.59,1361.1 3871.09,1359.77 3870.5,1358.5C 3871.17,1328.83 3871.83,1299.17 3872.5,1269.5 Z"/></g>
<g><path style="opacity:1" fill="#f0b501" d="M 3095.5,1300.5 C 3103.37,1299.87 3107.21,1303.54 3107,1311.5C 3107.67,1352.83 3107.67,1394.17 3107,1435.5C 3106.47,1439.3 3105.47,1442.97 3104,1446.5C 3097.95,1450.18 3093.62,1448.84 3091,1442.5C 3090.33,1397.5 3090.33,1352.5 3091,1307.5C 3091.9,1304.77 3093.4,1302.43 3095.5,1300.5 Z"/></g>
<g><path style="opacity:1" fill="#f0b501" d="M 3705.5,1300.5 C 3712.89,1299.73 3716.73,1303.06 3717,1310.5C 3717.67,1352.5 3717.67,1394.5 3717,1436.5C 3717.41,1445.6 3713.24,1449.44 3704.5,1448C 3702.11,1446.11 3700.95,1443.61 3701,1440.5C 3700.33,1396.17 3700.33,1351.83 3701,1307.5C 3701.9,1304.77 3703.4,1302.43 3705.5,1300.5 Z"/></g>
<g><path style="opacity:1" fill="#b88a05" d="M 2207.5,1305.5 C 2207.5,1320.83 2207.5,1336.17 2207.5,1351.5C 2209.5,1351.5 2211.5,1351.5 2213.5,1351.5C 2211.39,1352.47 2209.06,1352.8 2206.5,1352.5C 2206.17,1336.66 2206.5,1320.99 2207.5,1305.5 Z"/></g>
<g><path style="opacity:1" fill="#f3b800" d="M 2207.5,1305.5 C 2214.95,1304.8 2220.12,1307.8 2223,1314.5C 2223.9,1324.56 2223.56,1334.56 2222,1344.5C 2221.06,1349.06 2218.22,1351.4 2213.5,1351.5C 2211.5,1351.5 2209.5,1351.5 2207.5,1351.5C 2207.5,1336.17 2207.5,1320.83 2207.5,1305.5 Z"/></g>
<g><path style="opacity:1" fill="#bf9004" d="M 2666.5,1311.5 C 2654.68,1312.5 2642.68,1312.83 2630.5,1312.5C 2630.5,1325.17 2630.5,1337.83 2630.5,1350.5C 2641.68,1350.17 2652.68,1350.51 2663.5,1351.5C 2652.17,1351.5 2640.83,1351.5 2629.5,1351.5C 2629.5,1338.17 2629.5,1324.83 2629.5,1311.5C 2641.83,1311.5 2654.17,1311.5 2666.5,1311.5 Z"/></g>
<g><path style="opacity:1" fill="#bdbab9" d="M 910.5,1232.5 C 910.5,1259.5 910.5,1286.5 910.5,1313.5C 989.167,1313.5 1067.83,1313.5 1146.5,1313.5C 1146.5,1286.5 1146.5,1259.5 1146.5,1232.5C 1147.5,1259.66 1147.83,1286.99 1147.5,1314.5C 1068.17,1314.5 988.833,1314.5 909.5,1314.5C 909.169,1286.99 909.502,1259.66 910.5,1232.5 Z"/></g>
<g><path style="opacity:1" fill="#fefffe" d="M 910.5,1232.5 C 989.167,1232.5 1067.83,1232.5 1146.5,1232.5C 1146.5,1259.5 1146.5,1286.5 1146.5,1313.5C 1067.83,1313.5 989.167,1313.5 910.5,1313.5C 910.5,1286.5 910.5,1259.5 910.5,1232.5 Z"/></g>
<g><path style="opacity:1" fill="#efb501" d="M 2355.5,1318.5 C 2358.37,1347.04 2361.37,1375.71 2364.5,1404.5C 2358.5,1404.5 2352.5,1404.5 2346.5,1404.5C 2348.35,1375.7 2351.35,1347.03 2355.5,1318.5 Z"/></g>
<g><path style="opacity:1" fill="#5a420b" d="M 4008.5,1311.5 C 4009.49,1318.31 4009.82,1325.31 4009.5,1332.5C 4026.17,1332.5 4042.83,1332.5 4059.5,1332.5C 4059.5,1329.5 4059.5,1326.5 4059.5,1323.5C 4060.48,1326.62 4060.81,1329.96 4060.5,1333.5C 4043.17,1333.5 4025.83,1333.5 4008.5,1333.5C 4008.5,1326.17 4008.5,1318.83 4008.5,1311.5 Z"/></g>
<g><path style="opacity:1" fill="#726b68" d="M 1245.5,1346.5 C 1101.17,1346.5 956.833,1346.5 812.5,1346.5C 812.831,1371.01 812.498,1395.34 811.5,1419.5C 811.5,1394.83 811.5,1370.17 811.5,1345.5C 956.334,1345.17 1101,1345.5 1245.5,1346.5 Z"/></g>
<g><path style="opacity:1" fill="#8a6608" d="M 3843.5,1389.5 C 3842.83,1419.5 3842.17,1449.5 3841.5,1479.5C 3841.33,1448.5 3841.5,1417.5 3842,1386.5C 3843.04,1387.24 3843.54,1388.24 3843.5,1389.5 Z"/></g>
<g><path style="opacity:1" fill="#795a0a" d="M 2490.5,1404.5 C 2491.17,1404.5 2491.83,1404.5 2492.5,1404.5C 2492.46,1417.72 2491.79,1417.72 2490.5,1404.5 Z"/></g>
<g><path style="opacity:1" fill="#886508" d="M 2346.5,1442.5 C 2352.98,1441.51 2359.65,1441.18 2366.5,1441.5C 2366.5,1442.5 2366.5,1443.5 2366.5,1444.5C 2360.12,1442.6 2353.45,1441.93 2346.5,1442.5 Z"/></g>
<g><path style="opacity:1" fill="#72540a" d="M 2152.5,1269.5 C 2152.5,1339.5 2152.5,1409.5 2152.5,1479.5C 2170.5,1479.5 2188.5,1479.5 2206.5,1479.5C 2188.34,1480.5 2170.01,1480.83 2151.5,1480.5C 2151.17,1410 2151.5,1339.66 2152.5,1269.5 Z"/></g>
<g><path style="opacity:1" fill="#78580a" d="M 2273.5,1402.5 C 2274.5,1428.33 2274.83,1454.33 2274.5,1480.5C 2257.33,1480.83 2240.33,1480.5 2223.5,1479.5C 2240.17,1479.5 2256.83,1479.5 2273.5,1479.5C 2273.5,1453.83 2273.5,1428.17 2273.5,1402.5 Z"/></g>
<g><path style="opacity:1" fill="#8d6807" d="M 2424.5,1477.5 C 2425.4,1478.21 2425.74,1479.21 2425.5,1480.5C 2406.33,1480.83 2387.33,1480.5 2368.5,1479.5C 2387.53,1480.15 2406.2,1479.49 2424.5,1477.5 Z"/></g>
<g><path style="opacity:1" fill="#73550a" d="M 3186.5,1269.5 C 3186.5,1339.5 3186.5,1409.5 3186.5,1479.5C 3215.5,1479.5 3244.5,1479.5 3273.5,1479.5C 3244.34,1480.5 3215,1480.83 3185.5,1480.5C 3185.17,1410 3185.5,1339.66 3186.5,1269.5 Z"/></g>
<g><path style="opacity:1" fill="#72540a" d="M 3620.5,1269.5 C 3621.5,1339.66 3621.83,1410 3621.5,1480.5C 3602.99,1480.83 3584.66,1480.5 3566.5,1479.5C 3584.5,1479.5 3602.5,1479.5 3620.5,1479.5C 3620.5,1409.5 3620.5,1339.5 3620.5,1269.5 Z"/></g>
<g><path style="opacity:1" fill="#72530a" d="M 3917.5,1269.5 C 3918.5,1339.66 3918.83,1410 3918.5,1480.5C 3902.32,1480.83 3886.32,1480.5 3870.5,1479.5C 3886.17,1479.5 3901.83,1479.5 3917.5,1479.5C 3917.5,1409.5 3917.5,1339.5 3917.5,1269.5 Z"/></g>
<g><path style="opacity:1" fill="#21160f" d="M 2044.5,1561.5 C 2062.7,1558.81 2075.87,1565.48 2084,1581.5C 2084.49,1582.79 2084.66,1584.13 2084.5,1585.5C 2080.45,1585.82 2076.45,1585.49 2072.5,1584.5C 2065.51,1572.47 2055.51,1568.97 2042.5,1574C 2029.52,1584.6 2027.02,1597.44 2035,1612.5C 2044.2,1622.7 2054.7,1624.2 2066.5,1617C 2069.36,1614.78 2071.36,1611.95 2072.5,1608.5C 2076.45,1607.51 2080.45,1607.18 2084.5,1607.5C 2082.27,1618.9 2075.6,1626.4 2064.5,1630C 2031.39,1634.56 2016.56,1620.06 2020,1586.5C 2023.69,1573.64 2031.86,1565.31 2044.5,1561.5 Z"/></g>
<g><path style="opacity:1" fill="#22160f" d="M 2173.5,1561.5 C 2184.4,1559.6 2193.9,1562.26 2202,1569.5C 2204.03,1572.56 2205.2,1575.89 2205.5,1579.5C 2201.45,1579.82 2197.45,1579.49 2193.5,1578.5C 2190.07,1571.12 2184.41,1568.62 2176.5,1571C 2169.02,1578.95 2170.36,1585.28 2180.5,1590C 2187.52,1591.89 2194.19,1594.56 2200.5,1598C 2210.85,1610.14 2209.52,1620.81 2196.5,1630C 2186.36,1632.82 2176.7,1631.82 2167.5,1627C 2163.11,1623.29 2160.44,1618.62 2159.5,1613C 2163.54,1612.17 2167.54,1612.34 2171.5,1613.5C 2175.55,1622.49 2182.22,1624.99 2191.5,1621C 2197.23,1614.65 2196.57,1608.98 2189.5,1604C 2182.28,1601.93 2175.28,1599.26 2168.5,1596C 2159.99,1589.79 2157.49,1581.62 2161,1571.5C 2164.19,1566.84 2168.36,1563.5 2173.5,1561.5 Z"/></g>
<g><path style="opacity:1" fill="#22160f" d="M 2295.5,1561.5 C 2326.81,1561.1 2340.31,1576.43 2336,1607.5C 2329.15,1625.68 2315.98,1633.85 2296.5,1632C 2276.23,1625.7 2267.07,1611.87 2269,1590.5C 2271.84,1575.17 2280.67,1565.5 2295.5,1561.5 Z"/></g>
<g><path style="opacity:1" fill="#21150f" d="M 2578.5,1561.5 C 2590.15,1559.21 2599.65,1562.55 2607,1571.5C 2607.96,1573.98 2608.79,1576.48 2609.5,1579C 2605.5,1579.67 2601.5,1579.67 2597.5,1579C 2593.46,1570.76 2587.13,1568.43 2578.5,1572C 2574.5,1577 2574.5,1582 2578.5,1587C 2584.94,1590.22 2591.61,1592.89 2598.5,1595C 2610.74,1601.24 2613.9,1610.74 2608,1623.5C 2605.74,1626.43 2602.9,1628.6 2599.5,1630C 2592.92,1631.54 2586.25,1631.88 2579.5,1631C 2570.39,1628.06 2565.06,1621.9 2563.5,1612.5C 2567.55,1612.18 2571.55,1612.51 2575.5,1613.5C 2578.72,1621.94 2584.72,1624.77 2593.5,1622C 2595.67,1621.17 2597.17,1619.67 2598,1617.5C 2599.49,1612.47 2598.33,1608.31 2594.5,1605C 2586.5,1601.67 2578.5,1598.33 2570.5,1595C 2563.96,1589.24 2561.8,1582.08 2564,1573.5C 2566.94,1567.05 2571.77,1563.05 2578.5,1561.5 Z"/></g>
<g><path style="opacity:1" fill="#896508" d="M 2850.5,1562.5 C 2846.3,1562.18 2842.3,1562.52 2838.5,1563.5C 2837.96,1563.44 2837.62,1563.11 2837.5,1562.5C 2841.98,1561.19 2846.32,1561.19 2850.5,1562.5 Z"/></g>
<g><path style="opacity:1" fill="#916b07" d="M 2882.5,1562.5 C 2886.68,1561.19 2891.02,1561.19 2895.5,1562.5C 2895.38,1563.11 2895.04,1563.44 2894.5,1563.5C 2890.7,1562.52 2886.7,1562.18 2882.5,1562.5 Z"/></g>
<g><path style="opacity:1" fill="#22160f" d="M 2949.5,1615.5 C 2949.5,1614.5 2949.5,1613.5 2949.5,1612.5C 2953.17,1612.5 2956.83,1612.5 2960.5,1612.5C 2963.29,1621.41 2969.29,1624.58 2978.5,1622C 2986.48,1616.1 2986.48,1610.1 2978.5,1604C 2969.34,1601.51 2960.84,1597.67 2953,1592.5C 2944.53,1578.63 2947.69,1568.46 2962.5,1562C 2974.14,1559.07 2983.97,1561.9 2992,1570.5C 2993.91,1573.21 2994.74,1576.21 2994.5,1579.5C 2990.5,1579.5 2986.5,1579.5 2982.5,1579.5C 2979.92,1571.89 2974.59,1569.06 2966.5,1571C 2958.92,1576.17 2958.59,1581.83 2965.5,1588C 2973.17,1591 2980.83,1594 2988.5,1597C 2997.86,1605.41 2999.03,1614.91 2992,1625.5C 2989.14,1628.52 2985.64,1630.35 2981.5,1631C 2970.48,1633.65 2960.98,1631.15 2953,1623.5C 2951.16,1621.13 2949.99,1618.47 2949.5,1615.5 Z"/></g>
<g><path style="opacity:1" fill="#22160f" d="M 3053.5,1561.5 C 3079.38,1558.9 3093.71,1570.4 3096.5,1596C 3095.07,1620.55 3082.07,1632.55 3057.5,1632C 3035.46,1626.47 3025.96,1612.3 3029,1589.5C 3031.86,1575.39 3040.03,1566.06 3053.5,1561.5 Z"/></g>
<g><path style="opacity:1" fill="#22160f" d="M 3387.5,1614.5 C 3390.68,1612.59 3394.35,1611.92 3398.5,1612.5C 3401.45,1621.14 3407.45,1624.31 3416.5,1622C 3421.73,1619.37 3423.56,1615.2 3422,1609.5C 3420.83,1607 3419,1605.17 3416.5,1604C 3407.36,1601.51 3398.86,1597.68 3391,1592.5C 3384.88,1583.87 3385.04,1575.37 3391.5,1567C 3402.08,1560.47 3413.08,1559.8 3424.5,1565C 3429.67,1568.5 3432.33,1573.34 3432.5,1579.5C 3428.5,1579.5 3424.5,1579.5 3420.5,1579.5C 3419.95,1575.24 3417.61,1572.41 3413.5,1571C 3403.5,1568.69 3398.67,1572.52 3399,1582.5C 3400.12,1584.62 3401.62,1586.46 3403.5,1588C 3411.17,1591 3418.83,1594 3426.5,1597C 3435.4,1604.85 3436.9,1614.01 3431,1624.5C 3427.89,1627.94 3424.06,1630.11 3419.5,1631C 3410.09,1632.8 3401.42,1631.14 3393.5,1626C 3390.31,1622.79 3388.31,1618.96 3387.5,1614.5 Z"/></g>
<g><path style="opacity:1" fill="#21160f" d="M 3687.5,1561.5 C 3707.27,1559.63 3720.44,1567.96 3727,1586.5C 3730.82,1616.67 3717.65,1631.84 3687.5,1632C 3672.11,1627.95 3662.95,1618.11 3660,1602.5C 3657.99,1581.06 3667.16,1567.39 3687.5,1561.5 Z"/></g>
<g><path style="opacity:1" fill="#936d07" d="M 3883.5,1562.5 C 3878.97,1562.18 3874.63,1562.52 3870.5,1563.5C 3869.96,1563.44 3869.62,1563.11 3869.5,1562.5C 3874.32,1561.19 3878.98,1561.19 3883.5,1562.5 Z"/></g>
<g><path style="opacity:1" fill="#896508" d="M 3914.5,1562.5 C 3918.68,1561.19 3923.02,1561.19 3927.5,1562.5C 3927.38,1563.11 3927.04,1563.44 3926.5,1563.5C 3922.7,1562.52 3918.7,1562.18 3914.5,1562.5 Z"/></g>
<g><path style="opacity:1" fill="#20140f" d="M 2095.5,1562.5 C 2099.17,1562.5 2102.83,1562.5 2106.5,1562.5C 2106.06,1578.89 2106.56,1595.22 2108,1611.5C 2113.72,1622.15 2121.89,1624.32 2132.5,1618C 2134.65,1615.53 2136.15,1612.7 2137,1609.5C 2137.5,1593.84 2137.67,1578.17 2137.5,1562.5C 2141.17,1562.5 2144.83,1562.5 2148.5,1562.5C 2148.67,1578.84 2148.5,1595.17 2148,1611.5C 2144.46,1625.44 2135.46,1632.11 2121,1631.5C 2105.68,1631.52 2097.35,1623.85 2096,1608.5C 2095.5,1593.17 2095.33,1577.84 2095.5,1562.5 Z"/></g>
<g><path style="opacity:1" fill="#1f140f" d="M 2262.5,1562.5 C 2262.5,1565.5 2262.5,1568.5 2262.5,1571.5C 2256.17,1571.5 2249.83,1571.5 2243.5,1571.5C 2243.5,1591.5 2243.5,1611.5 2243.5,1631.5C 2239.83,1631.5 2236.17,1631.5 2232.5,1631.5C 2232.5,1611.17 2232.5,1590.83 2232.5,1570.5C 2226.17,1570.5 2219.83,1570.5 2213.5,1570.5C 2213.5,1567.83 2213.5,1565.17 2213.5,1562.5C 2229.83,1562.5 2246.17,1562.5 2262.5,1562.5 Z"/></g>
<g><path style="opacity:1" fill="#1e140e" d="M 2433.5,1562.5 C 2446.5,1562.5 2459.5,1562.5 2472.5,1562.5C 2472.5,1565.17 2472.5,1567.83 2472.5,1570.5C 2462.99,1570.17 2453.65,1570.51 2444.5,1571.5C 2444.5,1578.17 2444.5,1584.83 2444.5,1591.5C 2452.65,1592.49 2460.98,1592.83 2469.5,1592.5C 2469.5,1595.17 2469.5,1597.83 2469.5,1600.5C 2461.17,1600.5 2452.83,1600.5 2444.5,1600.5C 2444.5,1607.5 2444.5,1614.5 2444.5,1621.5C 2453.65,1622.49 2462.99,1622.83 2472.5,1622.5C 2472.5,1625.5 2472.5,1628.5 2472.5,1631.5C 2459.5,1631.5 2446.5,1631.5 2433.5,1631.5C 2433.5,1608.5 2433.5,1585.5 2433.5,1562.5 Z"/></g>
<g><path style="opacity:1" fill="#60460b" d="M 2511.5,1562.5 C 2502.5,1562.5 2493.5,1562.5 2484.5,1562.5C 2484.5,1585.5 2484.5,1608.5 2484.5,1631.5C 2483.5,1608.34 2483.17,1585.01 2483.5,1561.5C 2493.01,1561.17 2502.35,1561.51 2511.5,1562.5 Z"/></g>
<g><path style="opacity:1" fill="#21150f" d="M 2511.5,1562.5 C 2527.38,1563.9 2534.22,1572.56 2532,1588.5C 2529.7,1596.97 2524.2,1601.63 2515.5,1602.5C 2520.62,1612.07 2526.29,1621.4 2532.5,1630.5C 2528.17,1631.83 2523.83,1631.83 2519.5,1630.5C 2514.17,1621.83 2508.83,1613.17 2503.5,1604.5C 2500.91,1603.52 2498.25,1603.19 2495.5,1603.5C 2495.5,1612.83 2495.5,1622.17 2495.5,1631.5C 2491.83,1631.5 2488.17,1631.5 2484.5,1631.5C 2484.5,1608.5 2484.5,1585.5 2484.5,1562.5C 2493.5,1562.5 2502.5,1562.5 2511.5,1562.5 Z"/></g>
<g><path style="opacity:1" fill="#62480b" d="M 2729.5,1562.5 C 2716.17,1562.5 2702.83,1562.5 2689.5,1562.5C 2689.5,1585.5 2689.5,1608.5 2689.5,1631.5C 2688.5,1608.34 2688.17,1585.01 2688.5,1561.5C 2702.34,1561.17 2716.01,1561.5 2729.5,1562.5 Z"/></g>
<g><path style="opacity:1" fill="#1e140e" d="M 2729.5,1562.5 C 2729.5,1565.17 2729.5,1567.83 2729.5,1570.5C 2719.5,1570.5 2709.5,1570.5 2699.5,1570.5C 2699.18,1578.02 2699.51,1585.35 2700.5,1592.5C 2708.5,1592.5 2716.5,1592.5 2724.5,1592.5C 2724.5,1595.17 2724.5,1597.83 2724.5,1600.5C 2716.17,1600.5 2707.83,1600.5 2699.5,1600.5C 2699.5,1610.83 2699.5,1621.17 2699.5,1631.5C 2696.17,1631.5 2692.83,1631.5 2689.5,1631.5C 2689.5,1608.5 2689.5,1585.5 2689.5,1562.5C 2702.83,1562.5 2716.17,1562.5 2729.5,1562.5 Z"/></g>
<g><path style="opacity:1" fill="#1e140e" d="M 2739.5,1562.5 C 2752.5,1562.5 2765.5,1562.5 2778.5,1562.5C 2778.5,1565.17 2778.5,1567.83 2778.5,1570.5C 2768.99,1570.17 2759.65,1570.51 2750.5,1571.5C 2750.5,1578.5 2750.5,1585.5 2750.5,1592.5C 2758.83,1592.5 2767.17,1592.5 2775.5,1592.5C 2775.5,1595.17 2775.5,1597.83 2775.5,1600.5C 2767.5,1600.5 2759.5,1600.5 2751.5,1600.5C 2750.51,1607.65 2750.18,1614.98 2750.5,1622.5C 2759.83,1622.5 2769.17,1622.5 2778.5,1622.5C 2778.5,1625.5 2778.5,1628.5 2778.5,1631.5C 2765.5,1631.5 2752.5,1631.5 2739.5,1631.5C 2739.5,1608.5 2739.5,1585.5 2739.5,1562.5 Z"/></g>
<g><path style="opacity:1" fill="#25180f" d="M 2784.5,1562.5 C 2801.17,1562.5 2817.83,1562.5 2834.5,1562.5C 2834.5,1565.5 2834.5,1568.5 2834.5,1571.5C 2828.17,1571.5 2821.83,1571.5 2815.5,1571.5C 2815.5,1591.5 2815.5,1611.5 2815.5,1631.5C 2811.5,1631.5 2807.5,1631.5 2803.5,1631.5C 2803.5,1611.5 2803.5,1591.5 2803.5,1571.5C 2797.17,1571.5 2790.83,1571.5 2784.5,1571.5C 2784.5,1568.5 2784.5,1565.5 2784.5,1562.5 Z"/></g>
<g><path style="opacity:1" fill="#21150f" d="M 2850.5,1562.5 C 2855.84,1572.5 2861.17,1582.5 2866.5,1592.5C 2871.86,1582.44 2877.2,1572.44 2882.5,1562.5C 2886.7,1562.18 2890.7,1562.52 2894.5,1563.5C 2887.27,1577.63 2879.77,1591.63 2872,1605.5C 2871.5,1614.16 2871.33,1622.83 2871.5,1631.5C 2867.83,1631.5 2864.17,1631.5 2860.5,1631.5C 2860.67,1622.49 2860.5,1613.49 2860,1604.5C 2852.3,1591.1 2845.13,1577.43 2838.5,1563.5C 2842.3,1562.52 2846.3,1562.18 2850.5,1562.5 Z"/></g>
<g><path style="opacity:1" fill="#1e140e" d="M 2926.5,1562.5 C 2930.17,1562.5 2933.83,1562.5 2937.5,1562.5C 2937.5,1585.5 2937.5,1608.5 2937.5,1631.5C 2933.83,1631.5 2930.17,1631.5 2926.5,1631.5C 2926.5,1608.5 2926.5,1585.5 2926.5,1562.5 Z"/></g>
<g><path style="opacity:1" fill="#20140f" d="M 3107.5,1562.5 C 3111.17,1562.5 3114.83,1562.5 3118.5,1562.5C 3118.33,1578.17 3118.5,1593.84 3119,1609.5C 3123.31,1621.05 3131.15,1624.22 3142.5,1619C 3145.14,1617.04 3146.97,1614.54 3148,1611.5C 3149.44,1595.22 3149.94,1578.89 3149.5,1562.5C 3153.17,1562.5 3156.83,1562.5 3160.5,1562.5C 3160.67,1578.84 3160.5,1595.17 3160,1611.5C 3156.41,1625.42 3147.41,1632.09 3133,1631.5C 3121.23,1631.72 3113.23,1626.38 3109,1615.5C 3107.56,1597.89 3107.06,1580.22 3107.5,1562.5 Z"/></g>
<g><path style="opacity:1" fill="#20140f" d="M 3192.5,1604.5 C 3190.05,1603.53 3187.39,1603.19 3184.5,1603.5C 3184.5,1612.83 3184.5,1622.17 3184.5,1631.5C 3180.83,1631.5 3177.17,1631.5 3173.5,1631.5C 3173.5,1608.5 3173.5,1585.5 3173.5,1562.5C 3185.56,1562.09 3197.56,1562.59 3209.5,1564C 3220.19,1569.22 3224.02,1577.72 3221,1589.5C 3218.29,1597.29 3212.79,1601.96 3204.5,1603.5C 3210.38,1612.75 3216.38,1621.92 3222.5,1631C 3218.17,1631.67 3213.83,1631.67 3209.5,1631C 3203.97,1621.99 3198.3,1613.16 3192.5,1604.5 Z"/></g>
<g><path style="opacity:1" fill="#62480b" d="M 3295.5,1562.5 C 3282.17,1562.5 3268.83,1562.5 3255.5,1562.5C 3255.5,1585.5 3255.5,1608.5 3255.5,1631.5C 3254.5,1608.34 3254.17,1585.01 3254.5,1561.5C 3268.34,1561.17 3282.01,1561.5 3295.5,1562.5 Z"/></g>
<g><path style="opacity:1" fill="#22160f" d="M 3295.5,1562.5 C 3295.5,1565.17 3295.5,1567.83 3295.5,1570.5C 3285.65,1570.17 3275.99,1570.51 3266.5,1571.5C 3266.5,1578.5 3266.5,1585.5 3266.5,1592.5C 3274.5,1592.5 3282.5,1592.5 3290.5,1592.5C 3290.5,1595.5 3290.5,1598.5 3290.5,1601.5C 3282.5,1601.5 3274.5,1601.5 3266.5,1601.5C 3266.5,1611.5 3266.5,1621.5 3266.5,1631.5C 3262.83,1631.5 3259.17,1631.5 3255.5,1631.5C 3255.5,1608.5 3255.5,1585.5 3255.5,1562.5C 3268.83,1562.5 3282.17,1562.5 3295.5,1562.5 Z"/></g>
<g><path style="opacity:1" fill="#5a420b" d="M 3316.5,1562.5 C 3313.17,1562.5 3309.83,1562.5 3306.5,1562.5C 3306.5,1585.5 3306.5,1608.5 3306.5,1631.5C 3305.5,1608.34 3305.17,1585.01 3305.5,1561.5C 3309.37,1561.19 3313.04,1561.52 3316.5,1562.5 Z"/></g>
<g><path style="opacity:1" fill="#1e140e" d="M 3316.5,1562.5 C 3316.5,1585.5 3316.5,1608.5 3316.5,1631.5C 3313.17,1631.5 3309.83,1631.5 3306.5,1631.5C 3306.5,1608.5 3306.5,1585.5 3306.5,1562.5C 3309.83,1562.5 3313.17,1562.5 3316.5,1562.5 Z"/></g>
<g><path style="opacity:1" fill="#20140f" d="M 3349.5,1604.5 C 3347.05,1603.53 3344.39,1603.19 3341.5,1603.5C 3341.5,1612.83 3341.5,1622.17 3341.5,1631.5C 3337.83,1631.5 3334.17,1631.5 3330.5,1631.5C 3330.5,1608.5 3330.5,1585.5 3330.5,1562.5C 3342.56,1562.09 3354.56,1562.59 3366.5,1564C 3377.19,1569.22 3381.02,1577.72 3378,1589.5C 3375.29,1597.29 3369.79,1601.96 3361.5,1603.5C 3367.38,1612.75 3373.38,1621.92 3379.5,1631C 3375.17,1631.67 3370.83,1631.67 3366.5,1631C 3360.97,1621.99 3355.3,1613.16 3349.5,1604.5 Z"/></g>
<g><path style="opacity:1" fill="#1f140f" d="M 3440.5,1562.5 C 3456.83,1562.5 3473.17,1562.5 3489.5,1562.5C 3489.5,1565.17 3489.5,1567.83 3489.5,1570.5C 3483.17,1570.5 3476.83,1570.5 3470.5,1570.5C 3470.5,1590.83 3470.5,1611.17 3470.5,1631.5C 3466.83,1631.5 3463.17,1631.5 3459.5,1631.5C 3459.5,1611.5 3459.5,1591.5 3459.5,1571.5C 3453.17,1571.5 3446.83,1571.5 3440.5,1571.5C 3440.5,1568.5 3440.5,1565.5 3440.5,1562.5 Z"/></g>
<g><path style="opacity:1" fill="#1f140f" d="M 3521.5,1562.5 C 3533.23,1562.09 3544.9,1562.59 3556.5,1564C 3567.19,1569.22 3571.02,1577.72 3568,1589.5C 3565.76,1597.41 3560.59,1602.24 3552.5,1604C 3545.84,1604.5 3539.17,1604.67 3532.5,1604.5C 3532.5,1613.5 3532.5,1622.5 3532.5,1631.5C 3528.83,1631.5 3525.17,1631.5 3521.5,1631.5C 3521.5,1608.5 3521.5,1585.5 3521.5,1562.5 Z"/></g>
<g><path style="opacity:1" fill="#20150f" d="M 3597.5,1604.5 C 3595.05,1603.53 3592.39,1603.19 3589.5,1603.5C 3589.5,1612.83 3589.5,1622.17 3589.5,1631.5C 3585.83,1631.5 3582.17,1631.5 3578.5,1631.5C 3578.5,1608.5 3578.5,1585.5 3578.5,1562.5C 3589.17,1562.33 3599.84,1562.5 3610.5,1563C 3621.07,1565.45 3626.73,1572.12 3627.5,1583C 3627.01,1588.65 3625.01,1593.65 3621.5,1598C 3617.68,1600.38 3613.68,1602.38 3609.5,1604C 3615.5,1613 3621.5,1622 3627.5,1631C 3623.13,1631.83 3618.8,1631.66 3614.5,1630.5C 3608.81,1621.77 3603.14,1613.1 3597.5,1604.5 Z"/></g>
<g><path style="opacity:1" fill="#1e140e" d="M 3637.5,1562.5 C 3641.17,1562.5 3644.83,1562.5 3648.5,1562.5C 3648.5,1585.5 3648.5,1608.5 3648.5,1631.5C 3644.83,1631.5 3641.17,1631.5 3637.5,1631.5C 3637.5,1608.5 3637.5,1585.5 3637.5,1562.5 Z"/></g>
<g><path style="opacity:1" fill="#20140f" d="M 3739.5,1562.5 C 3750.51,1562.33 3761.51,1562.5 3772.5,1563C 3787.21,1569.11 3791.38,1579.61 3785,1594.5C 3781.35,1599.41 3776.52,1602.41 3770.5,1603.5C 3775.92,1612.67 3781.58,1621.67 3787.5,1630.5C 3783.54,1631.66 3779.54,1631.83 3775.5,1631C 3769.96,1622.08 3764.29,1613.25 3758.5,1604.5C 3755.91,1603.52 3753.25,1603.19 3750.5,1603.5C 3750.5,1612.83 3750.5,1622.17 3750.5,1631.5C 3746.83,1631.5 3743.17,1631.5 3739.5,1631.5C 3739.5,1608.5 3739.5,1585.5 3739.5,1562.5 Z"/></g>
<g><path style="opacity:1" fill="#1e140e" d="M 3797.5,1562.5 C 3801.17,1562.5 3804.83,1562.5 3808.5,1562.5C 3808.5,1585.5 3808.5,1608.5 3808.5,1631.5C 3804.83,1631.5 3801.17,1631.5 3797.5,1631.5C 3797.5,1608.5 3797.5,1585.5 3797.5,1562.5 Z"/></g>
<g><path style="opacity:1" fill="#1e140e" d="M 3817.5,1562.5 C 3833.83,1562.5 3850.17,1562.5 3866.5,1562.5C 3866.5,1565.17 3866.5,1567.83 3866.5,1570.5C 3859.98,1570.18 3853.64,1570.51 3847.5,1571.5C 3847.5,1591.5 3847.5,1611.5 3847.5,1631.5C 3843.83,1631.5 3840.17,1631.5 3836.5,1631.5C 3836.5,1611.5 3836.5,1591.5 3836.5,1571.5C 3830.36,1570.51 3824.02,1570.18 3817.5,1570.5C 3817.5,1567.83 3817.5,1565.17 3817.5,1562.5 Z"/></g>
<g><path style="opacity:1" fill="#20150f" d="M 3883.5,1562.5 C 3888.13,1573.09 3893.3,1583.42 3899,1593.5C 3904.2,1583.11 3909.36,1572.78 3914.5,1562.5C 3918.7,1562.18 3922.7,1562.52 3926.5,1563.5C 3919.24,1577.43 3912.08,1591.43 3905,1605.5C 3904.5,1614.16 3904.33,1622.83 3904.5,1631.5C 3900.83,1631.5 3897.17,1631.5 3893.5,1631.5C 3893.67,1622.83 3893.5,1614.16 3893,1605.5C 3885.23,1591.63 3877.73,1577.63 3870.5,1563.5C 3874.63,1562.52 3878.97,1562.18 3883.5,1562.5 Z"/></g>
<g><path style="opacity:1" fill="#20150f" d="M 2406.5,1563.5 C 2410.83,1563.5 2415.17,1563.5 2419.5,1563.5C 2419.5,1586.17 2419.5,1608.83 2419.5,1631.5C 2416.17,1631.5 2412.83,1631.5 2409.5,1631.5C 2409.83,1614.82 2409.5,1598.15 2408.5,1581.5C 2407.7,1581.96 2407.37,1582.62 2407.5,1583.5C 2401.3,1599.43 2395.3,1615.43 2389.5,1631.5C 2385.89,1631.79 2382.39,1631.46 2379,1630.5C 2373.45,1615.35 2367.62,1600.35 2361.5,1585.5C 2361.29,1584.08 2360.79,1582.74 2360,1581.5C 2359.5,1598.16 2359.33,1614.83 2359.5,1631.5C 2355.83,1631.5 2352.17,1631.5 2348.5,1631.5C 2348.5,1608.83 2348.5,1586.17 2348.5,1563.5C 2353.21,1563.17 2357.88,1563.51 2362.5,1564.5C 2369.45,1581.7 2376.79,1598.7 2384.5,1615.5C 2392.03,1598.25 2399.36,1580.92 2406.5,1563.5 Z"/></g>
<g><path style="opacity:1" fill="#5b430b" d="M 2406.5,1563.5 C 2410.97,1562.51 2415.64,1562.18 2420.5,1562.5C 2420.83,1585.67 2420.5,1608.67 2419.5,1631.5C 2419.5,1608.83 2419.5,1586.17 2419.5,1563.5C 2415.17,1563.5 2410.83,1563.5 2406.5,1563.5 Z"/></g>
<g><path style="opacity:1" fill="#21150f" d="M 2641.5,1563.5 C 2646.21,1563.17 2650.88,1563.51 2655.5,1564.5C 2664.14,1586.4 2672.47,1608.4 2680.5,1630.5C 2676.5,1631.83 2672.5,1631.83 2668.5,1630.5C 2667.03,1626.09 2665.36,1621.75 2663.5,1617.5C 2653.52,1616.5 2643.52,1616.17 2633.5,1616.5C 2632.14,1621.43 2630.47,1626.26 2628.5,1631C 2624.46,1631.83 2620.46,1631.66 2616.5,1630.5C 2625.43,1608.36 2633.77,1586.03 2641.5,1563.5 Z"/></g>
<g><path style="opacity:1" fill="#73540a" d="M 2262.5,1562.5 C 2246.17,1562.5 2229.83,1562.5 2213.5,1562.5C 2213.5,1565.17 2213.5,1567.83 2213.5,1570.5C 2219.83,1570.5 2226.17,1570.5 2232.5,1570.5C 2232.5,1590.83 2232.5,1611.17 2232.5,1631.5C 2231.5,1611.67 2231.17,1591.67 2231.5,1571.5C 2225.17,1571.5 2218.83,1571.5 2212.5,1571.5C 2212.5,1568.17 2212.5,1564.83 2212.5,1561.5C 2229.34,1561.17 2246.01,1561.5 2262.5,1562.5 Z"/></g>
<g><path style="opacity:1" fill="#664b0b" d="M 2433.5,1562.5 C 2446.66,1561.5 2459.99,1561.17 2473.5,1561.5C 2473.5,1564.83 2473.5,1568.17 2473.5,1571.5C 2463.83,1571.5 2454.17,1571.5 2444.5,1571.5C 2453.65,1570.51 2462.99,1570.17 2472.5,1570.5C 2472.5,1567.83 2472.5,1565.17 2472.5,1562.5C 2459.5,1562.5 2446.5,1562.5 2433.5,1562.5 Z"/></g>
<g><path style="opacity:1" fill="#664b0b" d="M 2739.5,1562.5 C 2752.66,1561.5 2765.99,1561.17 2779.5,1561.5C 2779.5,1564.83 2779.5,1568.17 2779.5,1571.5C 2770.17,1571.5 2760.83,1571.5 2751.5,1571.5C 2751.17,1571.5 2750.83,1571.5 2750.5,1571.5C 2759.65,1570.51 2768.99,1570.17 2778.5,1570.5C 2778.5,1567.83 2778.5,1565.17 2778.5,1562.5C 2765.5,1562.5 2752.5,1562.5 2739.5,1562.5 Z"/></g>
<g><path style="opacity:1" fill="#5e450b" d="M 3295.5,1562.5 C 3296.48,1565.29 3296.81,1568.29 3296.5,1571.5C 3286.5,1571.5 3276.5,1571.5 3266.5,1571.5C 3275.99,1570.51 3285.65,1570.17 3295.5,1570.5C 3295.5,1567.83 3295.5,1565.17 3295.5,1562.5 Z"/></g>
<g><path style="opacity:1" fill="#73540a" d="M 3440.5,1562.5 C 3456.99,1561.5 3473.66,1561.17 3490.5,1561.5C 3490.5,1564.83 3490.5,1568.17 3490.5,1571.5C 3484.17,1571.5 3477.83,1571.5 3471.5,1571.5C 3471.83,1591.67 3471.5,1611.67 3470.5,1631.5C 3470.5,1611.17 3470.5,1590.83 3470.5,1570.5C 3476.83,1570.5 3483.17,1570.5 3489.5,1570.5C 3489.5,1567.83 3489.5,1565.17 3489.5,1562.5C 3473.17,1562.5 3456.83,1562.5 3440.5,1562.5 Z"/></g>
<g><path style="opacity:1" fill="#61460b" d="M 3817.5,1562.5 C 3817.5,1565.17 3817.5,1567.83 3817.5,1570.5C 3824.02,1570.18 3830.36,1570.51 3836.5,1571.5C 3829.83,1571.5 3823.17,1571.5 3816.5,1571.5C 3816.19,1568.29 3816.52,1565.29 3817.5,1562.5 Z"/></g>
<g><path style="opacity:1" fill="#61460b" d="M 3866.5,1562.5 C 3867.48,1565.29 3867.81,1568.29 3867.5,1571.5C 3860.83,1571.5 3854.17,1571.5 3847.5,1571.5C 3853.64,1570.51 3859.98,1570.18 3866.5,1570.5C 3866.5,1567.83 3866.5,1565.17 3866.5,1562.5 Z"/></g>
<g><path style="opacity:1" fill="#75560a" d="M 2729.5,1570.5 C 2720.01,1571.49 2710.35,1571.83 2700.5,1571.5C 2700.5,1578.5 2700.5,1585.5 2700.5,1592.5C 2699.51,1585.35 2699.18,1578.02 2699.5,1570.5C 2709.5,1570.5 2719.5,1570.5 2729.5,1570.5 Z"/></g>
<g><path style="opacity:1" fill="#f2b700" d="M 3532.5,1571.5 C 3538.18,1571.33 3543.84,1571.5 3549.5,1572C 3554.88,1573.71 3557.54,1577.38 3557.5,1583C 3557.64,1589.4 3554.64,1593.4 3548.5,1595C 3543.18,1595.5 3537.84,1595.67 3532.5,1595.5C 3532.5,1587.5 3532.5,1579.5 3532.5,1571.5 Z"/></g>
<g><path style="opacity:1" fill="#f3b800" d="M 2297.5,1571.5 C 2318.59,1571.76 2327.75,1582.43 2325,1603.5C 2320.65,1617.6 2311.15,1623.43 2296.5,1621C 2287.94,1617.72 2282.77,1611.55 2281,1602.5C 2278.17,1587.55 2283.67,1577.21 2297.5,1571.5 Z"/></g>
<g><path style="opacity:1" fill="#61470b" d="M 2511.5,1572.5 C 2506.17,1572.5 2500.83,1572.5 2495.5,1572.5C 2495.5,1580.17 2495.5,1587.83 2495.5,1595.5C 2494.51,1587.68 2494.17,1579.68 2494.5,1571.5C 2500.36,1571.18 2506.02,1571.51 2511.5,1572.5 Z"/></g>
<g><path style="opacity:1" fill="#f5b900" d="M 2511.5,1572.5 C 2515.56,1572.72 2518.39,1574.72 2520,1578.5C 2522.25,1585.94 2520.08,1591.44 2513.5,1595C 2507.51,1595.5 2501.51,1595.67 2495.5,1595.5C 2495.5,1587.83 2495.5,1580.17 2495.5,1572.5C 2500.83,1572.5 2506.17,1572.5 2511.5,1572.5 Z"/></g>
<g><path style="opacity:1" fill="#f3b800" d="M 3057.5,1571.5 C 3070.37,1570.35 3079.21,1575.68 3084,1587.5C 3087.56,1600.54 3084.06,1611.04 3073.5,1619C 3056.53,1625.1 3045.36,1619.6 3040,1602.5C 3037.61,1587.25 3043.45,1576.92 3057.5,1571.5 Z"/></g>
<g><path style="opacity:1" fill="#b08405" d="M 3200.5,1572.5 C 3195.5,1572.5 3190.5,1572.5 3185.5,1572.5C 3185.5,1580.17 3185.5,1587.83 3185.5,1595.5C 3184.51,1587.68 3184.17,1579.68 3184.5,1571.5C 3190.03,1571.18 3195.36,1571.51 3200.5,1572.5 Z"/></g>
<g><path style="opacity:1" fill="#f4b800" d="M 3200.5,1572.5 C 3205.23,1572.77 3208.39,1575.11 3210,1579.5C 3211.71,1586.38 3209.54,1591.55 3203.5,1595C 3197.51,1595.5 3191.51,1595.67 3185.5,1595.5C 3185.5,1587.83 3185.5,1580.17 3185.5,1572.5C 3190.5,1572.5 3195.5,1572.5 3200.5,1572.5 Z"/></g>
<g><path style="opacity:1" fill="#b08405" d="M 3357.5,1572.5 C 3352.5,1572.5 3347.5,1572.5 3342.5,1572.5C 3342.5,1580.17 3342.5,1587.83 3342.5,1595.5C 3341.51,1587.68 3341.17,1579.68 3341.5,1571.5C 3347.03,1571.18 3352.36,1571.51 3357.5,1572.5 Z"/></g>
<g><path style="opacity:1" fill="#f4b800" d="M 3357.5,1572.5 C 3367.01,1575.19 3369.84,1581.19 3366,1590.5C 3364.46,1592.38 3362.62,1593.88 3360.5,1595C 3354.51,1595.5 3348.51,1595.67 3342.5,1595.5C 3342.5,1587.83 3342.5,1580.17 3342.5,1572.5C 3347.5,1572.5 3352.5,1572.5 3357.5,1572.5 Z"/></g>
<g><path style="opacity:1" fill="#b08405" d="M 3605.5,1572.5 C 3600.5,1572.5 3595.5,1572.5 3590.5,1572.5C 3590.5,1580.17 3590.5,1587.83 3590.5,1595.5C 3589.51,1587.68 3589.17,1579.68 3589.5,1571.5C 3595.03,1571.18 3600.36,1571.51 3605.5,1572.5 Z"/></g>
<g><path style="opacity:1" fill="#f4b800" d="M 3605.5,1572.5 C 3610.5,1572.33 3613.67,1574.67 3615,1579.5C 3617.07,1586.51 3614.91,1591.68 3608.5,1595C 3602.51,1595.5 3596.51,1595.67 3590.5,1595.5C 3590.5,1587.83 3590.5,1580.17 3590.5,1572.5C 3595.5,1572.5 3600.5,1572.5 3605.5,1572.5 Z"/></g>
<g><path style="opacity:1" fill="#f3b800" d="M 3688.5,1571.5 C 3709.5,1571.68 3718.67,1582.35 3716,1603.5C 3710.72,1618.89 3700.22,1624.39 3684.5,1620C 3671.6,1611.74 3667.77,1600.24 3673,1585.5C 3676.47,1578.86 3681.63,1574.2 3688.5,1571.5 Z"/></g>
<g><path style="opacity:1" fill="#f0b601" d="M 3750.5,1571.5 C 3756.18,1571.33 3761.84,1571.5 3767.5,1572C 3776.45,1576.2 3778.62,1582.7 3774,1591.5C 3773.1,1592.7 3771.93,1593.53 3770.5,1594C 3763.92,1595.38 3757.26,1595.88 3750.5,1595.5C 3750.5,1587.5 3750.5,1579.5 3750.5,1571.5 Z"/></g>
<g><path style="opacity:1" fill="#edb401" d="M 2647.5,1576.5 C 2649.28,1577.57 2650.45,1579.24 2651,1581.5C 2654.13,1590.09 2656.97,1598.76 2659.5,1607.5C 2652.14,1607.83 2644.8,1607.5 2637.5,1606.5C 2641.41,1596.68 2644.75,1586.68 2647.5,1576.5 Z"/></g>
<g><path style="opacity:1" fill="#543d0b" d="M 2409.5,1631.5 C 2408.83,1615.5 2408.17,1599.5 2407.5,1583.5C 2407.37,1582.62 2407.7,1581.96 2408.5,1581.5C 2409.5,1598.15 2409.83,1614.82 2409.5,1631.5 Z"/></g>
<g><path style="opacity:1" fill="#bd8e04" d="M 2361.5,1585.5 C 2360.83,1600.83 2360.17,1616.17 2359.5,1631.5C 2359.33,1614.83 2359.5,1598.16 2360,1581.5C 2360.79,1582.74 2361.29,1584.08 2361.5,1585.5 Z"/></g>
<g><path style="opacity:1" fill="#805e09" d="M 2444.5,1591.5 C 2453.17,1591.5 2461.83,1591.5 2470.5,1591.5C 2470.5,1594.5 2470.5,1597.5 2470.5,1600.5C 2470.17,1600.5 2469.83,1600.5 2469.5,1600.5C 2469.5,1597.83 2469.5,1595.17 2469.5,1592.5C 2460.98,1592.83 2452.65,1592.49 2444.5,1591.5 Z"/></g>
<g><path style="opacity:1" fill="#826009" d="M 2750.5,1571.5 C 2750.83,1571.5 2751.17,1571.5 2751.5,1571.5C 2751.5,1578.17 2751.5,1584.83 2751.5,1591.5C 2759.83,1591.5 2768.17,1591.5 2776.5,1591.5C 2776.81,1594.71 2776.48,1597.71 2775.5,1600.5C 2775.5,1597.83 2775.5,1595.17 2775.5,1592.5C 2767.17,1592.5 2758.83,1592.5 2750.5,1592.5C 2750.5,1585.5 2750.5,1578.5 2750.5,1571.5 Z"/></g>
<g><path style="opacity:1" fill="#bf9004" d="M 2469.5,1600.5 C 2469.83,1600.5 2470.17,1600.5 2470.5,1600.5C 2462.35,1601.49 2454.02,1601.83 2445.5,1601.5C 2445.5,1608.17 2445.5,1614.83 2445.5,1621.5C 2445.17,1621.5 2444.83,1621.5 2444.5,1621.5C 2444.5,1614.5 2444.5,1607.5 2444.5,1600.5C 2452.83,1600.5 2461.17,1600.5 2469.5,1600.5 Z"/></g>
<g><path style="opacity:1" fill="#78590a" d="M 2724.5,1600.5 C 2716.68,1601.49 2708.68,1601.83 2700.5,1601.5C 2700.83,1611.68 2700.49,1621.68 2699.5,1631.5C 2699.5,1621.17 2699.5,1610.83 2699.5,1600.5C 2707.83,1600.5 2716.17,1600.5 2724.5,1600.5 Z"/></g>
<g><path style="opacity:1" fill="#c09004" d="M 3192.5,1604.5 C 3190.17,1604.5 3187.83,1604.5 3185.5,1604.5C 3185.83,1613.68 3185.49,1622.68 3184.5,1631.5C 3184.5,1622.17 3184.5,1612.83 3184.5,1603.5C 3187.39,1603.19 3190.05,1603.53 3192.5,1604.5 Z"/></g>
<g><path style="opacity:1" fill="#c09004" d="M 3349.5,1604.5 C 3347.17,1604.5 3344.83,1604.5 3342.5,1604.5C 3342.83,1613.68 3342.49,1622.68 3341.5,1631.5C 3341.5,1622.17 3341.5,1612.83 3341.5,1603.5C 3344.39,1603.19 3347.05,1603.53 3349.5,1604.5 Z"/></g>
<g><path style="opacity:1" fill="#c09004" d="M 3597.5,1604.5 C 3595.17,1604.5 3592.83,1604.5 3590.5,1604.5C 3590.83,1613.68 3590.49,1622.68 3589.5,1631.5C 3589.5,1622.17 3589.5,1612.83 3589.5,1603.5C 3592.39,1603.19 3595.05,1603.53 3597.5,1604.5 Z"/></g>
<g><path style="opacity:1" fill="#8b6708" d="M 2960.5,1612.5 C 2956.83,1612.5 2953.17,1612.5 2949.5,1612.5C 2949.5,1613.5 2949.5,1614.5 2949.5,1615.5C 2948.57,1614.43 2948.23,1613.1 2948.5,1611.5C 2952.7,1611.18 2956.7,1611.52 2960.5,1612.5 Z"/></g>
<g><path style="opacity:1" fill="#8c6707" d="M 3398.5,1612.5 C 3394.35,1611.92 3390.68,1612.59 3387.5,1614.5C 3386.6,1613.79 3386.26,1612.79 3386.5,1611.5C 3390.7,1611.18 3394.7,1611.52 3398.5,1612.5 Z"/></g>
<g><path style="opacity:1" fill="#805e09" d="M 2444.5,1621.5 C 2444.83,1621.5 2445.17,1621.5 2445.5,1621.5C 2454.83,1621.5 2464.17,1621.5 2473.5,1621.5C 2473.81,1625.04 2473.48,1628.38 2472.5,1631.5C 2472.5,1628.5 2472.5,1625.5 2472.5,1622.5C 2462.99,1622.83 2453.65,1622.49 2444.5,1621.5 Z"/></g>
<g><path style="opacity:1" fill="#826009" d="M 2751.5,1600.5 C 2751.5,1607.5 2751.5,1614.5 2751.5,1621.5C 2760.83,1621.5 2770.17,1621.5 2779.5,1621.5C 2779.81,1625.04 2779.48,1628.38 2778.5,1631.5C 2778.5,1628.5 2778.5,1625.5 2778.5,1622.5C 2769.17,1622.5 2759.83,1622.5 2750.5,1622.5C 2750.18,1614.98 2750.51,1607.65 2751.5,1600.5 Z"/></g>
</svg>
