<svg width="628" height="96" viewBox="0 0 628 96" fill="none" xmlns="http://www.w3.org/2000/svg">
<path d="M117.18 33.46H149.52V41.94H127.69V55.37H144.42V63.7H127.69V85.83H117.18V33.46Z" fill="#D31131"/>
<path d="M181.25 86.36C166.47 86.36 154.39 75.26 154.39 59.5C154.39 43.82 166.47 32.71 181.25 32.71C196.18 32.71 208.03 43.81 208.03 59.5C208.04 75.25 196.11 86.36 181.25 86.36ZM181.25 76.98C190.7 76.98 197.23 70.15 197.23 59.5C197.23 48.85 190.7 42.17 181.25 42.17C171.72 42.17 165.19 48.85 165.19 59.5C165.2 70.15 171.72 76.98 181.25 76.98Z" fill="#D31131"/>
<path d="M235.49 33.46C248.09 33.46 254.4 40.74 254.4 49.52C254.4 55.9 250.87 62.35 242.47 64.6L255 85.83H242.84L231.28 65.42H226.33V85.83H215.83V33.46H235.49ZM235.12 42.17H226.34V57.55H235.12C240.97 57.55 243.6 54.47 243.6 49.75C243.59 45.09 240.97 42.17 235.12 42.17Z" fill="#D31131"/>
<path d="M294.31 41.94H274.43V55.07H292.06V63.4H274.43V77.28H294.31V85.83H263.92V33.39H294.31V41.94Z" fill="#D31131"/>
<path d="M314.33 33.46H303.83V85.83H314.33V33.46Z" fill="#D31131"/>
<path d="M373.23 49.22H361.15C358.75 44.79 354.4 42.47 348.85 42.47C339.47 42.47 332.94 49.15 332.94 59.58C332.94 70.24 339.54 76.84 349.3 76.84C357.4 76.84 362.58 72.19 364.16 64.76H346.15V56.73H374.51V65.88C372.41 76.54 362.88 86.29 348.93 86.29C333.7 86.29 322.14 75.26 322.14 59.58C322.14 43.9 333.69 32.79 348.85 32.79C360.55 32.79 369.86 38.71 373.23 49.22Z" fill="#D31131"/>
<path d="M427.1 33.39V85.83H416.59L392.81 49.89V85.83H382.3V33.39H392.81L416.59 69.4V33.39H427.1Z" fill="#D31131"/>
<path d="M474.58 65.73H465.8V85.84H455.3V33.47H474.58C487.19 33.47 493.49 40.6 493.49 49.68C493.49 57.62 488.09 65.73 474.58 65.73ZM474.13 57.25C480.06 57.25 482.68 54.32 482.68 49.67C482.68 44.87 480.05 42.02 474.13 42.02H465.8V57.25H474.13Z" fill="#D31131"/>
<path d="M520.57 33.46C533.17 33.46 539.48 40.74 539.48 49.52C539.48 55.9 535.95 62.35 527.55 64.6L540.08 85.83H527.92L516.37 65.42H511.42V85.83H500.92V33.46H520.57ZM520.19 42.17H511.41V57.55H520.19C526.04 57.55 528.67 54.47 528.67 49.75C528.67 45.09 526.04 42.17 520.19 42.17Z" fill="#D31131"/>
<path d="M579.38 41.94H559.5V55.07H577.13V63.4H559.5V77.28H579.38V85.83H549V33.39H579.38V41.94Z" fill="#D31131"/>
<path d="M608.19 65.73H599.41V85.84H588.91V33.47H608.19C620.8 33.47 627.1 40.6 627.1 49.68C627.1 57.62 621.7 65.73 608.19 65.73ZM607.74 57.25C613.67 57.25 616.29 54.32 616.29 49.67C616.29 44.87 613.66 42.02 607.74 42.02H599.41V57.25H607.74Z" fill="#D31131"/>
<path d="M44.96 9.70001C44.79 9.72001 44.63 9.73 44.46 9.75C44.48 9.61 44.49 9.48001 44.51 9.35001C44.59 8.75001 44.66 8.15 44.74 7.56C44.74 7.53 44.75 7.48999 44.76 7.45999C44.81 7.25999 44.75 7.08002 44.69 6.89002C44.57 6.52002 44.47 6.13999 44.36 5.76999C44.27 5.44999 44.17 5.13 44.07 4.81C44.07 4.79 44.06 4.77 44.05 4.75C44.19 4.71 44.32 4.68002 44.46 4.64002C45.06 5.27002 45.65 5.90999 46.25 6.54999C47.64 6.34999 49.04 6.14 50.44 5.94C50.38 5.69 50.32 5.43 50.27 5.18C50.09 5.15 49.92 5.12 49.75 5.09C49.75 5.09 49.75 5.08001 49.75 5.07001C49.9 4.99001 50.05 4.90999 50.2 4.82999C50.17 4.68999 50.14 4.56002 50.11 4.42002C49.98 4.40002 49.84 4.37001 49.7 4.35001C49.82 4.29001 49.92 4.23 50.03 4.18C50 4.08 49.96 3.97 49.92 3.87C49.84 3.85 49.76 3.84001 49.67 3.82001C49.67 3.82001 49.67 3.80999 49.67 3.79999C49.73 3.76999 49.8 3.73 49.86 3.69C49.45 2.49 49.04 1.29 48.64 0.0899985C48.78 0.0399985 48.9 0.0799961 49.01 0.149996C49.17 0.239996 49.29 0.390011 49.4 0.540011C49.75 1.03001 50.1 1.53 50.45 2.03C50.74 2.45 51.03 2.87001 51.32 3.29001C51.49 3.54001 51.66 3.77999 51.83 4.01999C51.85 4.03999 51.86 4.06 51.88 4.06C52.01 4.05 52.15 4.05001 52.28 4.04001C52.48 4.03001 52.69 4.02001 52.89 4.04001C53.04 4.06001 53.14 4.12 53.17 4.28C53.21 4.44 53.25 4.59999 53.25 4.76999C53.25 4.81999 53.25 4.86 53.24 4.9C53.23 4.96 53.19 5 53.13 5.03C52.95 5.09 52.77 5.16 52.57 5.19C52.68 5.35 52.79 5.5 52.89 5.65C53.08 5.63 53.28 5.59999 53.47 5.57999C54.32 5.47999 55.18 5.38001 56.03 5.32001C56.22 5.31001 56.41 5.30001 56.6 5.29001C56.88 5.27001 57.14 5.32002 57.4 5.42002C57.67 5.52002 57.92 5.63999 58.14 5.82999C58.27 5.93999 58.28 6.06001 58.17 6.20001C58.03 6.38001 57.85 6.51001 57.66 6.63001C57.33 6.85001 56.96 6.93001 56.58 6.98001C55.61 7.12001 54.63 7.19 53.65 7.25C53.47 7.26 53.28 7.27 53.09 7.28C52.99 7.44 52.88 7.61001 52.77 7.79001C53.01 7.80001 53.23 7.79 53.45 7.87C53.5 7.93 53.5 8.00001 53.51 8.07001C53.54 8.24001 53.54 8.40999 53.55 8.57999C53.55 8.70999 53.49 8.77001 53.39 8.82001C53.18 8.91001 52.96 8.95 52.74 8.97C52.6 8.99 52.45 8.99 52.29 9C52.25 9.1 52.21 9.21 52.17 9.31C51.85 10.12 51.51 10.93 51.14 11.72C50.96 12.11 50.77 12.5 50.54 12.86C50.37 13.13 50.14 13.32 49.84 13.46C50.05 12.18 50.25 10.92 50.46 9.65C50.37 9.61 50.27 9.57 50.18 9.53C50.18 9.53 50.18 9.52001 50.18 9.51001C50.28 9.48001 50.39 9.45999 50.49 9.42999C50.51 9.33999 50.52 9.24 50.54 9.15C50.42 9.1 50.3 9.04999 50.16 8.98999C50.3 8.94999 50.43 8.92002 50.56 8.89002C50.56 8.75002 50.57 8.60001 50.58 8.45001C50.44 8.39001 50.3 8.33001 50.14 8.26001C50.3 8.22001 50.44 8.18 50.59 8.15C50.6 7.9 50.61 7.66001 50.62 7.41001C49.17 7.47001 47.74 7.51999 46.3 7.57999C45.85 8.27999 45.4 8.99001 44.96 9.70001Z" fill="#433F40"/>
<path d="M78.44 51.76C70.47 63.46 56.77 63.91 50.29 76.68C43.81 63.91 30.11 63.46 22.14 51.76C22.84 54.28 22.67 56.15 22.02 57.42C21.48 58.48 21.62 59.76 22.33 60.71C27.82 68.1 40.87 71.03 47.81 79.3V80.26C47.81 81.62 48.91 82.72 50.27 82.72C50.28 82.72 50.29 82.72 50.3 82.72C50.31 82.72 50.32 82.72 50.33 82.72C51.69 82.72 52.79 81.62 52.79 80.26V79.3C59.68 71.09 72.6 68.14 78.15 60.86C78.94 59.82 79.04 58.43 78.49 57.25C77.9 55.99 77.76 54.18 78.44 51.76Z" fill="#D31131"/>
<path d="M38.16 79.54C29.13 75.47 25.77 69.29 25.77 69.29C25.77 69.29 20.19 71.59 27.97 78.22C33.25 82.72 28.11 83.23 23.78 80.12C19.45 77 16.13 71.53 14.85 66.72C14.35 64.86 12.07 63.32 10.28 64.47C13.15 82.31 28.61 95.93 47.26 95.93C47.25 95.94 50.54 85.12 38.16 79.54Z" fill="#433F40"/>
<path d="M62.36 79.54C71.39 75.47 74.75 69.29 74.75 69.29C74.75 69.29 80.33 71.59 72.55 78.22C67.27 82.72 72.41 83.23 76.74 80.12C81.07 77 84.39 71.53 85.67 66.72C86.17 64.86 88.45 63.32 90.24 64.47C87.37 82.31 71.91 95.93 53.26 95.93C53.26 95.94 49.97 85.12 62.36 79.54Z" fill="#433F40"/>
<path d="M54.1 36.65C54.1 38.76 52.39 40.47 50.27 40.47C48.15 40.47 46.44 38.76 46.44 36.65C46.44 36.39 46.47 36.13 46.52 35.89C47.56 35.4 48.86 35.1 50.27 35.1C51.68 35.1 52.98 35.39 54.02 35.89C54.07 36.14 54.1 36.4 54.1 36.65Z" fill="#D31131"/>
<path fill-rule="evenodd" clip-rule="evenodd" d="M56.22 36.13L56.5 36.81H55.39L55.5 36.54L55.66 36.14L55.86 35.65V35.18C55.77 35.15 55.71 35.07 55.71 34.96C55.71 34.86 55.77 34.78 55.86 34.74V32.51L53.91 33.33V35.17C51.45 34.22 49.03 34.16 46.65 35.17V33.33L43.25 31.89L46.76 30.4L50.27 28.92L53.78 30.4L57.29 31.89L56 32.43V34.72C56.09 34.75 56.15 34.83 56.15 34.94C56.15 35.04 56.09 35.12 56 35.16V35.63L56.22 36.13Z" fill="#D31131"/>
<path d="M68.65 56.88C60.91 58.74 51.17 70.45 51.17 70.45C50.5 47.85 60.78 44.64 60.78 44.64C55.34 48.68 56.58 59.15 56.58 59.15C61.24 57.22 65.54 56.8 68.65 56.88Z" fill="#433F40"/>
<path d="M64.27 55.08C64.28 55.14 64.26 55.21 64.21 55.25C64.15 55.3 64.07 55.31 64 55.28L63.63 55.95L63.41 55.7L63.19 55.45L63.9 55.17C63.87 55.1 63.89 55.01 63.95 54.96C64 54.91 64.07 54.9 64.13 54.92L64.84 54.3L63.78 53.81L63.49 54.06C63.38 55.38 62.27 56.42 60.92 56.42C59.49 56.42 58.34 55.27 58.34 53.84C58.34 52.42 59.49 51.26 60.92 51.26L61.28 50.94L60.66 48.74L64.66 50.41L66.05 54.86L65.07 54.4L64.27 55.08Z" fill="#433F40"/>
<path d="M63.15 31.53C62.23 37.91 57.25 38.91 52.68 44.12C51.56 45.39 50.79 47.08 50.27 48.97C49.75 47.08 48.98 45.39 47.86 44.12C43.29 38.9 38.31 37.91 37.39 31.53C37.39 31.53 36.49 35.14 39.52 39.22C42.38 43.07 48.91 43.67 50.27 63.83C51.63 43.67 58.15 43.07 61.02 39.22C64.05 35.14 63.15 31.53 63.15 31.53Z" fill="#D31131"/>
<path d="M31.9 56.88C39.64 58.74 49.38 70.45 49.38 70.45C50.05 47.85 39.77 44.64 39.77 44.64C45.21 48.68 43.97 59.15 43.97 59.15C39.32 57.22 35.01 56.8 31.9 56.88Z" fill="#433F40"/>
<path d="M36.28 55.08C36.27 55.14 36.29 55.21 36.34 55.25C36.4 55.3 36.48 55.31 36.55 55.28L36.92 55.95L37.14 55.7L37.36 55.45L36.65 55.17C36.68 55.1 36.66 55.01 36.6 54.96C36.55 54.91 36.48 54.9 36.42 54.92L35.71 54.3L36.78 53.81L37.07 54.06C37.18 55.38 38.29 56.42 39.64 56.42C41.07 56.42 42.22 55.27 42.22 53.84C42.22 52.42 41.07 51.26 39.64 51.26L39.28 50.94L39.9 48.74L35.9 50.41L34.51 54.86L35.49 54.4L36.28 55.08Z" fill="#433F40"/>
<path d="M50.25 6.77C48.16 6.8 46.07 6.98001 44 7.28001C39.84 7.89001 35.78 9.05 31.94 10.71C26.19 13.2 20.98 16.83 16.64 21.3C12.31 25.77 8.88 31.08 6.61 36.83C4.33 42.58 3.23 48.76 3.33 54.9C3.43 61.04 4.74 67.14 7.17 72.74C9.6 78.34 13.14 83.42 17.5 87.64C19.87 89.93 22.48 91.96 25.27 93.7L17.72 92.92C16.74 92.06 15.8 91.16 14.9 90.23C10.35 85.54 6.74001 79.95 4.35001 73.91C1.95001 67.87 0.780008 61.37 0.880008 54.91C0.980008 48.45 2.36001 42.03 4.91001 36.14C7.46001 30.25 11.18 24.89 15.76 20.45C20.35 16 25.79 12.49 31.69 10.16C35.65 8.59001 39.8 7.57 44.01 7.09C46.1 6.83 48.18 6.74 50.25 6.77Z" fill="#433F40"/>
<path d="M50.04 14.87C27.26 14.87 8.73 33.12 8.73 55.56C8.73 57.79 8.92 59.98 9.27 62.11C9.99 61.73 10.8 61.53 11.62 61.53C12.11 61.53 12.59 61.6 13.06 61.74C12.71 59.73 12.53 57.67 12.53 55.57C12.53 35.25 29.36 18.71 50.04 18.71C70.73 18.71 87.56 35.25 87.56 55.57C87.56 57.73 87.37 59.84 87.01 61.9C87.62 61.67 88.26 61.54 88.91 61.54C89.58 61.54 90.24 61.67 90.85 61.93C91.19 59.86 91.36 57.73 91.36 55.57C91.35 33.12 72.82 14.87 50.04 14.87Z" fill="#D31131"/>
</svg>
