<svg width="19" height="13" viewBox="0 0 19 13" fill="none" xmlns="http://www.w3.org/2000/svg">
<path d="M0.724609 5.50311C0.732609 5.59511 0.741559 5.68603 0.747559 5.77703C0.797937 6.58164 0.966407 7.37449 1.24756 8.13006C1.60719 9.0789 2.15106 9.94741 2.84766 10.6852C3.67428 11.5781 4.71555 12.2444 5.87256 12.621C6.34411 12.7787 6.83072 12.8873 7.32458 12.945C7.46835 12.9565 7.61282 12.9565 7.75659 12.945C6.517 11.9257 5.62029 10.5505 5.18762 9.00506C5.32262 8.98006 5.45267 8.95506 5.58167 8.93206C6.40135 8.79684 7.15962 8.41296 7.75366 7.83221C8.44662 7.18122 8.89133 6.30928 9.0116 5.36614C9.10312 4.74681 9.04825 4.11472 8.85132 3.52044C8.65438 2.92616 8.32083 2.38613 7.87756 1.94402C7.24476 1.2695 6.39561 0.838161 5.47766 0.72503C4.46004 0.574152 3.42277 0.809036 2.56934 1.38348C1.71591 1.95792 1.10788 2.83044 0.864624 3.83001C0.795472 4.09824 0.752245 4.3726 0.735596 4.6491C0.733718 4.66308 0.730356 4.67684 0.725586 4.69012L0.724609 5.50311Z" fill="#FFFCF8"/>
<path d="M15.1129 9.00115C15.2239 8.98015 15.3288 8.95909 15.4368 8.94109C16.3239 8.80034 17.1425 8.37889 17.7724 7.7387C18.4023 7.09851 18.8104 6.27341 18.9368 5.38421C19.029 4.78008 18.9818 4.16283 18.7988 3.57976C18.6157 2.9967 18.3017 2.46327 17.8808 2.02019C17.2306 1.28885 16.3317 0.825427 15.3588 0.720145C14.7262 0.628022 14.0808 0.686453 13.475 0.8908C12.8693 1.09515 12.3204 1.43966 11.8729 1.89617C11.2725 2.49703 10.872 3.26839 10.7259 4.10515C10.6466 4.58551 10.6238 5.07335 10.6579 5.55901C10.6818 6.15819 10.7688 6.75331 10.9178 7.33416C11.229 8.5504 11.8365 9.67069 12.6859 10.5951C13.3053 11.2857 14.0523 11.8499 14.8858 12.257C15.5199 12.5614 16.1929 12.7772 16.8858 12.8981C17.1487 12.9537 17.4186 12.9682 17.6859 12.9411C16.4422 11.9247 15.5435 10.5485 15.1129 9.00115Z" fill="#FFFCF8"/>
</svg>
